<?xml version="1.0" encoding="utf-8"?>
<!-- Generator: Adobe Illustrator 25.0.0, SVG Export Plug-In . SVG Version: 6.00 Build 0)  -->
<svg version="1.1" id="Layer_1" xmlns="http://www.w3.org/2000/svg" xmlns:xlink="http://www.w3.org/1999/xlink" x="0px" y="0px"
	 viewBox="0 0 700 300" style="enable-background:new 0 0 700 300;" xml:space="preserve">
<style type="text/css">
	.st0{fill:#565555;}
	.st1{fill:#D2B22A;}
	.st2{fill:#E20613;}
	.st3{fill:#009540;}
	.st4{fill:#1D1D1B;}
</style>
<g>
	<path class="st0" d="M283.7,44v21.1h-7.9v-52h8.9c4.4,0,7.6,0.3,9.9,0.9c2.2,0.6,4.2,1.8,5.9,3.4c3,2.9,4.5,6.6,4.5,11.1
		c0,4.8-1.6,8.5-4.8,11.3c-3.2,2.8-7.5,4.2-12.9,4.2H283.7z M283.7,36.8h2.9c7.2,0,10.8-2.8,10.8-8.3c0-5.4-3.7-8.1-11.2-8.1h-2.6
		V36.8z"/>
	<path class="st0" d="M335.8,32.4h7.6v32.8h-7.6v-3.4c-3.1,2.9-6.5,4.4-10.1,4.4c-4.5,0-8.3-1.6-11.3-4.9c-2.9-3.3-4.4-7.5-4.4-12.5
		c0-4.9,1.5-9,4.4-12.3c2.9-3.3,6.6-4.9,11.1-4.9c3.8,0,7.2,1.6,10.3,4.7V32.4z M317.8,48.7c0,3.1,0.8,5.7,2.5,7.7
		c1.7,2,3.9,3,6.5,3c2.8,0,5.1-1,6.8-2.9c1.7-2,2.6-4.5,2.6-7.6c0-3.1-0.9-5.6-2.6-7.6c-1.7-2-4-2.9-6.7-2.9c-2.6,0-4.8,1-6.5,3
		C318.7,43.2,317.8,45.7,317.8,48.7z"/>
	<path class="st0" d="M360.6,8.3v56.9H353V8.3H360.6z"/>
	<path class="st0" d="M400.1,50.5h-23.5c0.2,2.7,1.1,4.8,2.6,6.4c1.5,1.6,3.5,2.4,6,2.4c1.9,0,3.4-0.4,4.7-1.3
		c1.2-0.9,2.6-2.6,4.1-5l6.4,3.6c-1,1.7-2,3.1-3.1,4.3c-1.1,1.2-2.3,2.2-3.5,3c-1.3,0.8-2.6,1.3-4.1,1.7c-1.5,0.4-3,0.5-4.8,0.5
		c-4.9,0-8.8-1.6-11.8-4.7c-3-3.2-4.4-7.4-4.4-12.6c0-5.2,1.4-9.4,4.3-12.6c2.9-3.2,6.7-4.8,11.5-4.8c4.8,0,8.6,1.5,11.5,4.6
		c2.8,3.1,4.2,7.3,4.2,12.7L400.1,50.5z M392.3,44.4c-1.1-4-3.6-6.1-7.6-6.1c-0.9,0-1.8,0.1-2.6,0.4c-0.8,0.3-1.5,0.7-2.2,1.2
		c-0.7,0.5-1.2,1.2-1.7,1.9s-0.8,1.6-1.1,2.5H392.3z"/>
	<path class="st0" d="M427.4,37.9l-6.3,3.3c-1-2-2.2-3-3.7-3c-0.7,0-1.3,0.2-1.8,0.7c-0.5,0.5-0.7,1-0.7,1.8c0,1.3,1.5,2.5,4.4,3.7
		c4,1.7,6.7,3.3,8.1,4.8c1.4,1.5,2.1,3.4,2.1,5.9c0,3.2-1.2,5.8-3.5,8c-2.3,2-5,3-8.2,3c-5.5,0-9.4-2.7-11.7-8.1l6.5-3
		c0.9,1.6,1.6,2.6,2.1,3c0.9,0.9,2,1.3,3.3,1.3c2.6,0,3.8-1.2,3.8-3.5c0-1.3-1-2.6-3-3.8c-0.8-0.4-1.5-0.8-2.3-1.1
		c-0.8-0.4-1.5-0.7-2.3-1.1c-2.2-1.1-3.8-2.2-4.6-3.2c-1.1-1.4-1.7-3.1-1.7-5.3c0-2.9,1-5.2,2.9-7.1c2-1.9,4.4-2.8,7.3-2.8
		C422.3,31.4,425.4,33.6,427.4,37.9z"/>
	<path class="st0" d="M444.2,39.4v25.7h-7.6V39.4h-3.2v-7.1h3.2v-12h7.6v12h5.9v7.1H444.2z"/>
	<path class="st0" d="M454.1,18.7c0-1.3,0.5-2.5,1.4-3.4c1-1,2.1-1.4,3.5-1.4c1.4,0,2.5,0.5,3.5,1.4c1,0.9,1.4,2.1,1.4,3.5
		c0,1.4-0.5,2.5-1.4,3.5c-0.9,1-2.1,1.4-3.5,1.4c-1.4,0-2.5-0.5-3.5-1.4C454.6,21.3,454.1,20.1,454.1,18.7z M462.8,32.4v32.8h-7.6
		V32.4H462.8z"/>
	<path class="st0" d="M472.4,32.4h7.6v3c2.7-2.6,5.6-3.9,9-3.9c3.8,0,6.8,1.2,8.9,3.6c1.8,2,2.8,5.4,2.8,10v20.1h-7.6V46.8
		c0-3.2-0.5-5.5-1.3-6.7c-0.9-1.3-2.5-1.9-4.8-1.9c-2.5,0-4.3,0.8-5.4,2.5c-1,1.6-1.5,4.5-1.5,8.6v15.8h-7.6V32.4z"/>
	<path class="st0" d="M509.1,18.7c0-1.3,0.5-2.5,1.4-3.4c1-1,2.1-1.4,3.5-1.4c1.4,0,2.5,0.5,3.5,1.4c1,0.9,1.4,2.1,1.4,3.5
		c0,1.4-0.5,2.5-1.4,3.5c-0.9,1-2.1,1.4-3.5,1.4s-2.5-0.5-3.5-1.4C509.6,21.3,509.1,20.1,509.1,18.7z M517.8,32.4v32.8h-7.6V32.4
		H517.8z"/>
	<path class="st0" d="M551.6,32.4h7.6v32.8h-7.6v-3.4c-3.1,2.9-6.5,4.4-10.1,4.4c-4.5,0-8.3-1.6-11.3-4.9c-2.9-3.3-4.4-7.5-4.4-12.5
		c0-4.9,1.5-9,4.4-12.3c2.9-3.3,6.6-4.9,11.1-4.9c3.8,0,7.2,1.6,10.3,4.7V32.4z M533.6,48.7c0,3.1,0.8,5.7,2.5,7.7
		c1.7,2,3.9,3,6.5,3c2.8,0,5.1-1,6.8-2.9c1.7-2,2.6-4.5,2.6-7.6c0-3.1-0.9-5.6-2.6-7.6c-1.7-2-4-2.9-6.7-2.9c-2.6,0-4.8,1-6.5,3
		C534.5,43.2,533.6,45.7,533.6,48.7z"/>
	<path class="st0" d="M568.8,32.4h7.6v3c2.6-2.6,5.6-3.9,9-3.9c3.8,0,6.8,1.2,8.9,3.6c1.8,2,2.8,5.4,2.8,10v20.1h-7.6V46.8
		c0-3.2-0.5-5.5-1.3-6.7c-0.9-1.3-2.5-1.9-4.8-1.9c-2.5,0-4.3,0.8-5.4,2.5c-1,1.6-1.5,4.5-1.5,8.6v15.8h-7.6V32.4z"/>
	<path class="st0" d="M301.8,88.5h-18.1V101h17.5v7.4h-17.5v24.8h-7.9v-52h26V88.5z"/>
	<path class="st0" d="M309.5,100.4h7.6v2.9c1.4-1.5,2.6-2.5,3.7-3c1.1-0.6,2.4-0.8,3.9-0.8c2,0,4.1,0.7,6.3,2l-3.5,6.9
		c-1.4-1-2.8-1.5-4.2-1.5c-4.1,0-6.2,3.1-6.2,9.4v17h-7.6V100.4z"/>
	<path class="st0" d="M365.2,118.5h-23.5c0.2,2.7,1.1,4.8,2.6,6.4c1.5,1.6,3.5,2.4,6,2.4c1.9,0,3.4-0.4,4.7-1.3
		c1.2-0.9,2.6-2.6,4.1-5l6.4,3.6c-1,1.7-2,3.1-3.1,4.3s-2.3,2.2-3.5,3c-1.3,0.8-2.6,1.3-4.1,1.7s-3,0.5-4.8,0.5
		c-4.9,0-8.8-1.6-11.8-4.7c-3-3.2-4.4-7.4-4.4-12.6c0-5.2,1.4-9.4,4.3-12.6c2.9-3.2,6.7-4.8,11.5-4.8c4.8,0,8.6,1.5,11.5,4.6
		c2.8,3.1,4.2,7.3,4.2,12.7L365.2,118.5z M357.4,112.3c-1.1-4-3.6-6.1-7.6-6.1c-0.9,0-1.8,0.1-2.6,0.4c-0.8,0.3-1.5,0.7-2.2,1.2
		c-0.7,0.5-1.2,1.2-1.7,1.9s-0.8,1.6-1.1,2.5H357.4z"/>
	<path class="st0" d="M397.6,151v-21.5c-3,3.1-6.4,4.6-10.3,4.6c-4.4,0-8.1-1.6-11-4.9c-2.9-3.3-4.4-7.4-4.4-12.3
		c0-5,1.5-9.2,4.4-12.5c3-3.3,6.7-5,11.2-5c3.8,0,7.2,1.5,10.2,4.5v-3.6h7.6V151H397.6z M379.6,116.6c0,3.2,0.9,5.7,2.6,7.7
		c1.7,2,3.9,3,6.5,3c2.8,0,5-1,6.8-2.9c1.8-2,2.6-4.5,2.6-7.6c0-3.1-0.9-5.6-2.6-7.6c-1.7-2-4-2.9-6.7-2.9c-2.6,0-4.8,1-6.5,3
		C380.5,111.2,379.6,113.7,379.6,116.6z"/>
	<path class="st0" d="M422.4,100.4v18.8c0,5.4,2.1,8.2,6.4,8.2s6.4-2.7,6.4-8.2v-18.8h7.6v19c0,2.6-0.3,4.9-1,6.8
		c-0.6,1.7-1.7,3.2-3.3,4.6c-2.6,2.2-5.8,3.3-9.8,3.3c-3.9,0-7.2-1.1-9.7-3.3c-1.6-1.4-2.7-2.9-3.3-4.6c-0.6-1.5-0.9-3.8-0.9-6.8
		v-19H422.4z"/>
	<path class="st0" d="M482.3,118.5h-23.5c0.2,2.7,1.1,4.8,2.6,6.4c1.5,1.6,3.5,2.4,6,2.4c1.9,0,3.4-0.4,4.7-1.3
		c1.2-0.9,2.6-2.6,4.1-5l6.4,3.6c-1,1.7-2,3.1-3.1,4.3c-1.1,1.2-2.3,2.2-3.5,3c-1.3,0.8-2.6,1.3-4.1,1.7c-1.5,0.4-3,0.5-4.8,0.5
		c-4.9,0-8.8-1.6-11.8-4.7c-3-3.2-4.4-7.4-4.4-12.6c0-5.2,1.4-9.4,4.3-12.6c2.9-3.2,6.7-4.8,11.5-4.8c4.8,0,8.6,1.5,11.5,4.6
		c2.8,3.1,4.2,7.3,4.2,12.7L482.3,118.5z M474.5,112.3c-1.1-4-3.6-6.1-7.6-6.1c-0.9,0-1.8,0.1-2.6,0.4c-0.8,0.3-1.5,0.7-2.2,1.2
		c-0.7,0.5-1.2,1.2-1.7,1.9s-0.8,1.6-1.1,2.5H474.5z"/>
	<path class="st0" d="M490.6,100.4h7.6v3c2.6-2.6,5.6-3.9,9-3.9c3.8,0,6.8,1.2,8.9,3.6c1.8,2,2.8,5.4,2.8,10v20.1h-7.6v-18.3
		c0-3.2-0.4-5.5-1.3-6.7c-0.9-1.3-2.5-1.9-4.8-1.9c-2.5,0-4.3,0.8-5.4,2.5c-1,1.6-1.5,4.5-1.5,8.6v15.8h-7.6V100.4z"/>
	<path class="st0" d="M554,101.8v10.1c-1.7-2.1-3.3-3.6-4.6-4.3c-1.3-0.8-2.9-1.2-4.8-1.2c-2.9,0-5.2,1-7.1,3
		c-1.9,2-2.8,4.5-2.8,7.5c0,3.1,0.9,5.6,2.7,7.6c1.8,2,4.2,3,7,3c1.8,0,3.4-0.4,4.8-1.2c1.3-0.8,2.9-2.2,4.8-4.4v10
		c-3.1,1.6-6.2,2.4-9.2,2.4c-5.1,0-9.3-1.6-12.7-4.9c-3.4-3.3-5.1-7.4-5.1-12.3c0-4.9,1.7-9,5.2-12.4s7.7-5.1,12.7-5.1
		C548,99.4,551.1,100.2,554,101.8z"/>
	<path class="st0" d="M571.6,127.1l-14.8-26.7h8.8l10,18.9l9.4-18.9h8.6L567.5,151h-8.7L571.6,127.1z"/>
	<path class="st0" d="M283.7,149.2v52h-7.9v-52H283.7z"/>
	<path class="st0" d="M294.7,168.4h7.6v3c2.6-2.6,5.6-3.9,9-3.9c3.8,0,6.8,1.2,8.9,3.6c1.8,2,2.8,5.4,2.8,10v20.1h-7.6v-18.3
		c0-3.2-0.4-5.5-1.3-6.7c-0.9-1.3-2.5-1.9-4.8-1.9c-2.5,0-4.3,0.8-5.4,2.5c-1,1.6-1.5,4.5-1.5,8.6v15.8h-7.6V168.4z"/>
	<path class="st0" d="M340.4,175.4v25.7h-7.6v-25.7h-2.7v-7.1h2.7v-12.7c0-4.1,0.7-7.1,2.2-8.8c2-2.4,4.9-3.6,8.6-3.6
		c1.3,0,3,0.4,5.1,1.2v7.7l-0.8-0.4c-1.6-0.8-3-1.2-4-1.2c-1.3,0-2.3,0.5-2.7,1.4c-0.5,0.9-0.7,2.8-0.7,5.5v10.8h8.3v7.1H340.4z"/>
	<path class="st0" d="M351.5,184.5c0-4.7,1.7-8.8,5.1-12.1s7.5-5,12.4-5c4.9,0,9.1,1.7,12.5,5c3.4,3.3,5.1,7.5,5.1,12.3
		c0,4.9-1.7,9-5.1,12.4c-3.4,3.3-7.6,5-12.6,5c-4.9,0-9-1.7-12.4-5.1C353.2,193.7,351.5,189.6,351.5,184.5z M359.3,184.7
		c0,3.3,0.9,5.9,2.6,7.8c1.8,1.9,4.2,2.9,7.1,2.9c3,0,5.3-1,7.1-2.9c1.8-1.9,2.7-4.5,2.7-7.6s-0.9-5.7-2.7-7.6
		c-1.8-1.9-4.2-2.9-7.1-2.9c-2.9,0-5.2,1-7,2.9C360.2,179.1,359.3,181.6,359.3,184.7z"/>
	<path class="st0" d="M394.5,168.4h7.6v2.9c1.4-1.5,2.6-2.5,3.7-3c1.1-0.6,2.4-0.8,3.9-0.8c2,0,4.1,0.7,6.3,2l-3.5,6.9
		c-1.4-1-2.8-1.6-4.2-1.6c-4.1,0-6.2,3.1-6.2,9.4v17h-7.6V168.4z"/>
	<path class="st0" d="M420.3,168.4h7.6v3c1.5-1.5,2.7-2.6,3.7-3.1c1.1-0.6,2.5-0.8,4.1-0.8c3.7,0,6.6,1.6,8.8,4.9
		c2.4-3.2,5.6-4.9,9.7-4.9c7.4,0,11.1,4.5,11.1,13.4v20.3h-7.6v-18.2c0-3.1-0.4-5.4-1.1-6.7c-0.8-1.3-2.1-2-3.9-2
		c-2.1,0-3.6,0.8-4.6,2.4c-1,1.6-1.4,4.1-1.4,7.6v16.9h-7.6V183c0-5.8-1.7-8.8-5.1-8.8c-2.1,0-3.7,0.8-4.7,2.4
		c-1,1.6-1.5,4.1-1.5,7.5v16.9h-7.6V168.4z"/>
	<path class="st0" d="M499.1,168.4h7.6v32.8h-7.6v-3.4c-3.1,2.9-6.5,4.4-10.1,4.4c-4.5,0-8.3-1.6-11.3-4.9
		c-2.9-3.3-4.4-7.5-4.4-12.5c0-4.9,1.5-9,4.4-12.3c2.9-3.3,6.6-4.9,11.1-4.9c3.8,0,7.2,1.6,10.3,4.7V168.4z M481.1,184.7
		c0,3.1,0.8,5.7,2.5,7.7c1.7,2,3.9,3,6.5,3c2.8,0,5.1-1,6.8-2.9c1.7-2,2.6-4.5,2.6-7.6s-0.9-5.6-2.6-7.6c-1.7-2-4-2.9-6.7-2.9
		c-2.6,0-4.8,1-6.5,3C482,179.2,481.1,181.7,481.1,184.7z"/>
	<path class="st0" d="M524.1,175.4v25.7h-7.6v-25.7h-3.2v-7.1h3.2v-12h7.6v12h5.9v7.1H524.1z"/>
	<path class="st0" d="M534,154.7c0-1.3,0.5-2.5,1.4-3.4c1-1,2.1-1.4,3.5-1.4c1.4,0,2.5,0.5,3.5,1.4c1,0.9,1.4,2.1,1.4,3.5
		s-0.5,2.5-1.4,3.5c-0.9,1-2.1,1.4-3.5,1.4c-1.4,0-2.5-0.5-3.5-1.4C534.5,157.3,534,156.1,534,154.7z M542.7,168.4v32.8h-7.6v-32.8
		H542.7z"/>
	<path class="st0" d="M550.8,184.5c0-4.7,1.7-8.8,5.1-12.1c3.4-3.3,7.5-5,12.4-5c4.9,0,9.1,1.7,12.5,5c3.4,3.3,5.1,7.5,5.1,12.3
		c0,4.9-1.7,9-5.1,12.4c-3.4,3.3-7.6,5-12.6,5c-4.9,0-9-1.7-12.4-5.1C552.5,193.7,550.8,189.6,550.8,184.5z M558.5,184.7
		c0,3.3,0.9,5.9,2.6,7.8c1.8,1.9,4.2,2.9,7.1,2.9c3,0,5.3-1,7.1-2.9s2.7-4.5,2.7-7.6s-0.9-5.7-2.7-7.6c-1.8-1.9-4.2-2.9-7.1-2.9
		c-2.9,0-5.2,1-7,2.9S558.5,181.6,558.5,184.7z"/>
	<path class="st0" d="M593.8,168.4h7.6v3c2.7-2.6,5.6-3.9,9-3.9c3.8,0,6.8,1.2,8.9,3.6c1.8,2,2.8,5.4,2.8,10v20.1h-7.6v-18.3
		c0-3.2-0.5-5.5-1.3-6.7c-0.9-1.3-2.5-1.9-4.8-1.9c-2.5,0-4.3,0.8-5.4,2.5c-1,1.6-1.5,4.5-1.5,8.6v15.8h-7.6V168.4z"/>
	<path class="st0" d="M305.2,224.9l-6.4,3.8c-1.2-2.1-2.3-3.4-3.4-4c-1.1-0.7-2.6-1.1-4.3-1.1c-2.2,0-4,0.6-5.4,1.9
		c-1.4,1.2-2.2,2.7-2.2,4.6c0,2.5,1.9,4.6,5.7,6.1l5.2,2.1c4.2,1.7,7.3,3.8,9.3,6.2c2,2.5,2.9,5.5,2.9,9c0,4.8-1.6,8.7-4.8,11.9
		c-3.2,3.1-7.2,4.7-12,4.7c-4.5,0-8.2-1.3-11.2-4c-2.9-2.7-4.7-6.4-5.4-11.3l8-1.8c0.4,3.1,1,5.2,1.9,6.3c1.6,2.2,4,3.4,7.1,3.4
		c2.4,0,4.5-0.8,6.1-2.5c1.6-1.6,2.4-3.7,2.4-6.2c0-1-0.1-1.9-0.4-2.8c-0.3-0.8-0.7-1.6-1.3-2.3c-0.6-0.7-1.4-1.4-2.3-2
		s-2.1-1.2-3.4-1.8l-5-2.1c-7.1-3-10.7-7.4-10.7-13.2c0-3.9,1.5-7.2,4.5-9.8c3-2.7,6.7-4,11.2-4
		C297.2,216.1,301.9,219.1,305.2,224.9z"/>
	<path class="st0" d="M325,263.1l-14.8-26.7h8.8l10,18.9l9.4-18.9h8.6L320.8,287h-8.7L325,263.1z"/>
	<path class="st0" d="M371.2,241.9l-6.3,3.3c-1-2-2.2-3-3.7-3c-0.7,0-1.3,0.2-1.8,0.7c-0.5,0.5-0.7,1-0.7,1.8c0,1.3,1.5,2.5,4.4,3.7
		c4,1.7,6.7,3.3,8.1,4.8s2.1,3.4,2.1,5.9c0,3.2-1.2,5.8-3.5,8c-2.3,2-5,3-8.2,3c-5.5,0-9.4-2.7-11.7-8.1l6.5-3
		c0.9,1.6,1.6,2.6,2.1,3c0.9,0.9,2,1.3,3.3,1.3c2.6,0,3.8-1.2,3.8-3.5c0-1.3-1-2.6-3-3.8c-0.8-0.4-1.5-0.8-2.3-1.1s-1.5-0.7-2.3-1.1
		c-2.2-1.1-3.8-2.2-4.6-3.2c-1.1-1.4-1.7-3.1-1.7-5.3c0-2.9,1-5.2,2.9-7.1c2-1.9,4.4-2.8,7.3-2.8C366,235.4,369.1,237.6,371.2,241.9
		z"/>
	<path class="st0" d="M387.9,243.4v25.7h-7.6v-25.7h-3.2v-7.1h3.2v-12h7.6v12h5.9v7.1H387.9z"/>
	<path class="st0" d="M428.9,254.5h-23.5c0.2,2.7,1.1,4.8,2.6,6.4c1.5,1.6,3.5,2.4,6,2.4c1.9,0,3.4-0.4,4.7-1.3
		c1.2-0.9,2.6-2.6,4.1-5l6.4,3.6c-1,1.7-2,3.1-3.1,4.3c-1.1,1.2-2.3,2.2-3.5,3c-1.3,0.8-2.6,1.3-4.1,1.7c-1.5,0.4-3,0.5-4.8,0.5
		c-4.9,0-8.8-1.6-11.8-4.7c-3-3.2-4.4-7.4-4.4-12.6c0-5.2,1.4-9.4,4.3-12.6c2.9-3.2,6.7-4.8,11.5-4.8c4.8,0,8.6,1.5,11.5,4.6
		c2.8,3.1,4.2,7.3,4.2,12.7L428.9,254.5z M421.1,248.3c-1.1-4-3.6-6.1-7.6-6.1c-0.9,0-1.8,0.1-2.6,0.4c-0.8,0.3-1.5,0.7-2.2,1.2
		c-0.7,0.5-1.2,1.2-1.7,1.9c-0.5,0.7-0.8,1.6-1.1,2.5H421.1z"/>
	<path class="st0" d="M437.2,236.4h7.6v3c1.5-1.5,2.7-2.6,3.7-3.1c1.1-0.6,2.5-0.8,4.1-0.8c3.7,0,6.6,1.6,8.8,4.9
		c2.4-3.2,5.6-4.9,9.7-4.9c7.4,0,11.1,4.5,11.1,13.4v20.3h-7.6v-18.2c0-3.1-0.4-5.4-1.1-6.7c-0.8-1.3-2.1-2-3.9-2
		c-2.1,0-3.6,0.8-4.6,2.4c-1,1.6-1.4,4.1-1.4,7.6v16.9h-7.6V251c0-5.8-1.7-8.8-5.1-8.8c-2.1,0-3.7,0.8-4.7,2.4
		c-1,1.6-1.5,4.1-1.5,7.5v16.9h-7.6V236.4z"/>
</g>
<path class="st1" d="M33.7,74.7l-7.5,151.4c5.9,0.3,10.8-4.2,11.1-10.1l6.7-133.7l-2.1-2.9C39.7,76.7,36.8,75.1,33.7,74.7"/>
<path class="st1" d="M50.8,202.5L56,98.4c-0.7-0.8-1.4-1.7-2.1-2.6L46,85.2l-6.3,127.4C45.5,212.9,50.5,208.4,50.8,202.5"/>
<path class="st1" d="M64.3,189l4.1-82.3c-3.7-1.4-7.3-3.4-10.3-6.2L53.2,199C59,199.3,64,194.8,64.3,189"/>
<path class="st1" d="M23.7,229.6l7.7-154.9c-2.1,0.1-4.2,0.8-6.1,2.1c1.5-2.2,3.4-4.2,5.8-5.7c5.4-3.5,11.9-4.2,17.9-1.9l20.2,7.8
	c4.6,1.8,9.4,2.6,14.2,2.6c-2,2.8-3.4,4.5-3.5,4.5l-1.7,2.1l2.7-0.5c4.9-0.9,9.6-2.3,14.2-4.2l-2,7.2l1.9-0.9
	c4.3-2,8.4-4.5,12.2-7.3l6.8,7.9l6.8-7.9c3.8,2.8,7.9,5.3,12.2,7.3l1.9,0.9l-2-7.2c4.6,1.9,9.3,3.3,14.2,4.2l3.3,0.6l-2.5-2.3
	c0,0-1.6-1.5-3.6-4.4c4.9,0,9.7-0.8,14.4-2.6l20.2-7.8c6-2.3,12.5-1.6,17.9,1.9c2.3,1.5,4.3,3.5,5.8,5.7c-1.9-1.3-4-2-6.1-2.1
	l7.7,154.9c0.3,5.9,5.3,10.4,11.1,10.1l-7.6-152.9l0-0.8c0-0.5-0.1-1-0.2-1.5c-0.9-6.2-4.3-11.6-9.6-15c-5.9-3.8-13.1-4.6-19.6-2
	l-20.2,7.8c-4.8,1.9-9.9,2.7-15,2.4c-4-6.5-9.1-18.2-8.8-35.6c0.7-17.4-2.5-24.3-5.3-27.1c-3.4-3.4-13.9-6.3-21-6.7
	c-1.6-0.1-2.8,0.3-3.5,1.2c-0.4,0.5-0.6,1-0.7,1.5c-5.2-1.2-13.2-2.5-17.1,0c-2.5,1.7-3.4,7.2-3.2,9.8c0.1,1.3,0.5,2.1,1.2,2.4
	c0.3,0.1,0.9,0.3,1.6-0.3c1.6-1.3,3.2-1.8,4.8-1.6c2.3,0.3,4.7,2.2,7,5.7c2.4,3.5,2.7,14.4-1.6,28.4c-2.5,8.2-7.8,16.7-11.7,22.3
	c-5,0.2-10.1-0.6-14.9-2.5l-20.2-7.8c-6.6-2.5-13.7-1.8-19.6,2c-5.3,3.5-8.7,8.8-9.6,15c-0.1,0.5-0.2,1-0.2,1.5l0,0.8l-2,40.8
	l-4.9,98.1l-0.7,13.9C18.4,239.9,23.4,235.4,23.7,229.6 M114.3,16.9c0,1.3-1,2.4-2.4,2.4c-1.3,0-2.4-1-2.4-2.4
	c0-1.3,1.1-2.4,2.4-2.4C113.3,14.5,114.3,15.6,114.3,16.9 M98.3,55.9c3.2-10.5,4.1-20.5,2.8-26.5c0.2-0.2,0.4-0.4,0.7-0.7
	c1.1-0.9,5.5,0.1,5.5,0.1C101.3,18.5,94.4,16,91.4,16.2c-3,0.1-5.1,3.3-6,4.8c-0.1-0.7-0.2-2.1,0.2-3.9c0-0.2,0.1-0.4,0.1-0.6
	c0,0,0,0,0,0c0.2-0.6,1-0.9,1.6-1.2c2.1-1.1,4.3-1.1,6.6-0.8c3.2,0.5,6.3,1.6,9.3,2.7c2.5,1,5,2.1,7.1,3.6c1.5,1.1,3.7,2.7,5,0.4
	c1.9-3.3,5.3-6.3,9.3-5c1.1,0.3,2.1,0.9,3,1.6c0.2,0.2,1.8,1.6,2.2,2.1c0,0,0,0.1,0.1,0.1c0,0,0,0.1,0,0.1c0,0,0,0,0,0
	c1.5,3.7,2.8,10.3,2.3,21.9c-0.4,23.1,8.1,36.2,12.2,41.2c-4.3-1-8.6-2.4-12.6-4.3l0,0c0,0,0,0-0.1,0c0,0-0.1-0.1-0.2-0.1
	c-0.2-0.1-0.5-0.3-0.8-0.6c-0.3-0.3-0.7-0.7-1.1-1.2c-0.4-0.5-0.8-1.2-1.3-1.9c-0.4-0.7-0.8-1.5-1.2-2.4c-0.4-0.9-0.7-1.9-1.1-2.9
	c-0.3-1-0.6-2.1-0.9-3.2c-0.3-1.1-0.5-2.2-0.8-3.3c-0.2-1.1-0.4-2.3-0.6-3.4c-0.2-1.1-0.3-2.2-0.5-3.3c-0.2-1.1-0.3-2.1-0.4-3.1
	c-0.1-1-0.2-1.9-0.3-2.8c-0.2-1.7-0.3-3.2-0.5-4.2c-0.1-1-0.2-1.6-0.2-1.6s-0.1,0.6-0.1,1.6c0,0.5-0.1,1.1-0.1,1.8
	c0,0.7-0.1,1.5-0.1,2.4c0,0.9,0.1,1.8,0.1,2.8c0,1,0.1,2.1,0.2,3.2c0.1,1.1,0.2,2.2,0.4,3.4c0.2,1.1,0.4,2.3,0.5,3.5
	c0.2,1.2,0.5,2.3,0.7,3.4c0.3,1.1,0.6,2.2,0.9,3.3c0.4,1.1,0.7,2.1,1.1,3c0.4,1,0.8,1.8,1.3,2.6c0.5,0.8,0.9,1.5,1.4,2.1
	c0.4,0.6,0.9,1.1,1.3,1.5c0.4,0.4,0.8,0.7,1,0.8l1.3,4.7c-3.7-1.9-7.3-4.1-10.6-6.6l0,0c0,0-0.1,0,0,0c0,0,0,0-0.1-0.1
	c-0.1-0.1-0.1-0.2-0.2-0.3c-0.1-0.1-0.2-0.3-0.2-0.5c-0.2-0.4-0.4-0.9-0.6-1.5c-0.2-0.6-0.4-1.3-0.6-2.1c-0.2-0.8-0.4-1.6-0.5-2.5
	c-0.2-0.9-0.3-1.9-0.5-2.9c-0.3-2-0.5-4.2-0.7-6.3c-0.1-1.1-0.2-2.2-0.3-3.2c-0.1-1.1-0.2-2.1-0.3-3.1c-0.1-1-0.2-2-0.2-2.9
	c-0.1-0.9-0.2-1.8-0.2-2.6c-0.1-1.6-0.3-3-0.4-3.9c-0.1-1-0.2-1.5-0.2-1.5s-0.1,0.5-0.1,1.5c-0.1,1-0.2,2.3-0.2,4
	c-0.1,3.3,0,7.7,0.4,12c0.2,2.2,0.4,4.4,0.7,6.4c0.1,1,0.3,2,0.4,2.9c0.2,0.9,0.3,1.8,0.5,2.6c0.2,0.8,0.4,1.6,0.6,2.2
	c0.2,0.7,0.4,1.2,0.6,1.7c0.1,0.2,0.2,0.5,0.3,0.6c0,0.1,0.1,0.1,0.1,0.1l-5.5,6.3l-5.4-6.3c0-0.1,0.1-0.1,0.1-0.2
	c0.1-0.2,0.2-0.4,0.3-0.6c0.2-0.5,0.4-1.1,0.6-1.7c0.2-0.7,0.4-1.4,0.6-2.2c0.2-0.8,0.3-1.7,0.5-2.6c0.1-0.9,0.3-1.9,0.4-2.9
	c0.3-2,0.5-4.2,0.7-6.4c0.4-4.4,0.5-8.7,0.4-12c-0.1-1.6-0.1-3-0.2-4c-0.1-1-0.1-1.5-0.1-1.5s-0.1,0.5-0.2,1.5
	c-0.1,1-0.3,2.3-0.4,3.9c-0.1,0.8-0.2,1.7-0.2,2.6c-0.1,0.9-0.1,1.9-0.2,2.9c-0.1,1-0.2,2.1-0.3,3.1c-0.1,1.1-0.2,2.1-0.3,3.2
	c-0.2,2.2-0.4,4.3-0.7,6.3c-0.1,1-0.3,2-0.5,2.9c-0.2,0.9-0.3,1.8-0.5,2.5c-0.2,0.8-0.4,1.5-0.6,2.1c-0.2,0.6-0.4,1.1-0.6,1.5
	c-0.1,0.2-0.2,0.4-0.2,0.5c-0.1,0.1-0.1,0.2-0.2,0.3c-0.1,0.1-0.1,0.1-0.1,0.1c0,0,0,0,0,0c-3.3,2.5-6.9,4.8-10.6,6.7l1.3-4.7
	c0,0,0,0,0.1,0c0.3-0.2,0.6-0.5,1.1-0.9c0.4-0.4,0.9-0.9,1.3-1.5c0.5-0.6,0.9-1.3,1.4-2.1c0.4-0.8,0.9-1.7,1.3-2.6
	c0.4-0.9,0.7-2,1.1-3c0.3-1.1,0.6-2.2,0.9-3.3c0.2-1.1,0.5-2.3,0.7-3.4c0.2-1.2,0.4-2.3,0.5-3.5c0.1-1.1,0.3-2.3,0.4-3.4
	c0.1-1.1,0.2-2.2,0.2-3.2c0-1,0.1-2,0.1-2.8c0-0.9,0-1.7-0.1-2.4c0-0.7-0.1-1.3-0.1-1.8c-0.1-1-0.1-1.6-0.1-1.6s-0.1,0.6-0.2,1.6
	c-0.1,1-0.3,2.5-0.5,4.2c-0.1,0.9-0.2,1.8-0.3,2.8c-0.1,1-0.2,2-0.4,3.1c-0.2,1.1-0.3,2.2-0.5,3.3c-0.2,1.1-0.4,2.2-0.6,3.4
	c-0.3,1.1-0.5,2.2-0.8,3.3c-0.3,1.1-0.6,2.2-0.9,3.2c-0.4,1-0.7,2-1.1,2.9c-0.4,0.9-0.8,1.7-1.2,2.4c-0.4,0.7-0.8,1.4-1.3,1.9
	c-0.4,0.5-0.8,0.9-1.1,1.2c-0.3,0.3-0.6,0.5-0.8,0.6c-0.1,0-0.1,0.1-0.2,0.1c-0.1,0-0.1,0-0.1,0l0,0c-4.2,1.9-8.5,3.3-13,4.4
	C86.6,78.7,94.9,67.2,98.3,55.9"/>
<path class="st1" d="M201.5,226.1L194,74.7c-3.1,0.4-6.1,2-8.1,4.7l-2.1,2.9l6.6,133.7C190.7,221.9,195.7,226.4,201.5,226.1"/>
<path class="st1" d="M188,212.6l-6.3-127.4l-7.9,10.6c-0.7,0.9-1.4,1.8-2.1,2.6l5.2,104.1C177.2,208.4,182.1,212.9,188,212.6"/>
<path class="st1" d="M159.3,106.7l4.1,82.3c0.3,5.9,5.3,10.4,11.1,10.1l-4.9-98.6C166.5,103.2,163,105.3,159.3,106.7"/>
<path class="st1" d="M113.8,187c35-18.4,37.4-59,37-74.4c-0.8,0.1-1.6,0.1-2.4,0.1c-7.1,0-13.9-2.1-19.8-6l-14.7-9.8l-14.7,9.8
	c-5.9,4-12.8,6.1-19.8,6.1c-0.8,0-1.6,0-2.4-0.1c-0.2,6.7,0.2,18.8,3.9,31.7C86.4,164.1,97.5,178.4,113.8,187 M78.7,114.6
	c0.2,0,0.3,0,0.5,0c7.5,0,14.7-2.2,20.9-6.4l13.7-9.1l13.7,9.1c6.2,4.2,13.4,6.4,20.9,6.4c0.2,0,0.4,0,0.5,0
	c0.1,7.5-0.7,20.4-5.2,33.4c-5.7,16.7-15.8,29-29.9,36.8c-15.3-8.4-25.9-22.2-31.2-41C79.3,132.2,78.7,121.2,78.7,114.6"/>
<path class="st1" d="M206.5,254.1c0,0-0.1,0-0.1,0c-0.8,0-2-0.1-2.5-0.2c-3-2.9-7.6-4.6-12.1-4.7c0.7-0.7,1.3-1.5,1.8-2.5
	c0.9-1.3,1.1-2.9,0.6-4.4c-0.9-2.5-3.7-3.8-6.2-2.9c-0.2,0.1-0.4,0.2-0.5,0.3c-0.1-0.1-0.1-0.1-0.2-0.2c-2.3-1.5-5.1-2-7.8-1.4
	c-2.4,0.6-4.4,1.9-5.8,3.8c-1.6-0.9-3.4-1.4-5.2-1.3L144,162.5c1.8-3.4,3.4-6.9,4.7-10.3l1.1,23.2c0.3,5.9,5.3,10.4,11.1,10.1
	l-3.9-78.1c-0.8,0.2-1.6,0.4-2.4,0.6c0,0,0,0,0.1,0c-2.1,0.4-4.2,0.6-6.3,0.6c-6.1,0-12.2-1.7-17.6-5.4l-17-11.3l-17,11.3
	c-5.4,3.6-11.5,5.4-17.6,5.4c-2.1,0-4.2-0.2-6.3-0.6c0,0,0,0,0.1,0c-0.8-0.2-1.6-0.4-2.4-0.6l-3.9,78.1c5.9,0.3,10.8-4.2,11.1-10.1
	l1.2-23.2c1.3,3.5,2.8,6.9,4.7,10.3l-24.4,78.1c-1.8,0-3.6,0.4-5.2,1.3c-1.4-1.9-3.4-3.3-5.8-3.8c-2.7-0.6-5.5-0.2-7.8,1.4
	c0,0-0.1,0-0.1,0.1c0,0-0.1,0.1-0.1,0.1c-0.2-0.1-0.3-0.2-0.5-0.3c-2.5-0.9-5.3,0.4-6.2,2.9c-0.5,1.5-0.3,3.1,0.6,4.4
	c0.5,0.9,1.1,1.8,1.8,2.5c-4.5,0.1-9.1,1.8-12.1,4.7c-0.5,0.1-1.5,0.3-2.5,0.2c0,0-0.1,0-0.1,0c-2.1,0.2-3.8,1.6-4.4,3.5
	c-0.6,1.9,0,3.9,1.6,5.4c0,0,0.1,0,0.1,0.1c0.8,0.5,1.7,1.3,2,1.7c1.1,4.8,5.2,9.3,10.2,11.5l-1,3.8c-0.1,0.5,0.2,1,0.7,1.2
	c27.3,7,55.3,10.6,83.3,10.6c28,0,56.1-3.5,83.3-10.6c0.5-0.1,0.8-0.7,0.7-1.2l-1-3.8c5-2.1,9.1-6.7,10.2-11.5
	c0.4-0.4,1.2-1.1,2-1.6c0,0,0.1-0.1,0.1-0.1c1.6-1.4,2.2-3.5,1.6-5.4C210.3,255.7,208.6,254.3,206.5,254.1 M188.5,241.2
	c0.3-0.1,0.7-0.2,1-0.2c1.2,0,2.3,0.7,2.7,1.9c0.3,0.9,0.2,1.9-0.4,2.7l-0.1,0.2c-0.8,1.7-2.3,2.9-3.3,3.6l-1.7-4.5
	C186.2,243.4,187,241.7,188.5,241.2 M173.3,244c0.2,0.2,0.5,0.2,0.8,0.2c0.3-0.1,0.5-0.2,0.6-0.5c1.1-1.9,2.9-3.3,5.1-3.8
	c2.1-0.5,4.2-0.2,6,0.9c-1,1.2-1.4,2.9-0.8,4.5c-0.3,0.1-0.7,0.2-1,0.2c-1.6,0.4-3.2,0.8-4.8,1.1c-0.3,0.1-0.6,0.1-0.9,0.2
	c-6,1.3-12,2.5-18,3.4c-0.3-1.5-1.2-2.8-2.6-3.5c-1.2-0.6-2.5-0.7-3.7-0.2c-1.2,0.4-2.2,1.3-2.8,2.4c-0.4,0.8-0.6,1.7-0.5,2.6
	c-7.8,1-15.6,1.6-23.5,2c0.3-1.1,0.2-2.2-0.3-3.2c-0.4-1-1.2-1.7-2.1-2.2c1.1-0.7,2.4-1.1,3.7-1.1c2.2-0.1,4.3,0.7,5.9,2.2
	c0,0,0,0,0.1,0c0.1,0.1,0.2,0.1,0.3,0.2c0.4,0.1,0.8,0,1.1-0.3c1.4-1.7,3.3-2.8,5.6-3c2.2-0.2,4.3,0.5,6,1.9
	c0.1,0.1,0.2,0.2,0.4,0.2c0.4,0.1,0.8,0,1.1-0.4c1.3-1.8,3.2-3,5.4-3.3c2.2-0.3,4.4,0.3,6.1,1.7c0.2,0.2,0.5,0.2,0.8,0.2
	c0.3,0,0.5-0.2,0.7-0.4c1.2-1.9,3.1-3.1,5.3-3.5C169.3,242.3,171.5,242.7,173.3,244 M189.6,273.1l0.9,3.6
	c-50.1,12.1-103.1,12.1-153.2,0l0.9-3.6c0.1-0.2,0-0.5-0.1-0.7c-0.1-0.2-0.3-0.4-0.6-0.4c-0.9-0.2-1.9-0.5-2.8-0.7
	c-3.7-0.9-7.3-4.6-8-7.9c-0.3-1.2-1.4-2.5-2.5-3.5c1.5-0.2,3.1-0.6,4-1.6c2.3-2.5,7.1-3.8,10.6-2.9c0.9,0.2,1.8,0.4,2.7,0.7
	c0.2,0.1,0.5,0,0.7-0.1c0.2-0.1,0.4-0.3,0.4-0.6l0.9-3.6c8.6,2.1,17.3,3.7,26.1,5l1.6,3.3l1-1.1c0,0,0.6-0.7,1.4-1.7
	c9.7,1.3,19.4,2.1,29.1,2.5l0.4,1.2l1-0.5c0,0,0.4-0.2,0.9-0.6c5.9,0.2,11.8,0.2,17.7,0c0.5,0.4,0.9,0.6,1,0.6l1,0.5l0.4-1.2
	c9.7-0.4,19.4-1.2,29.1-2.5c0.8,1,1.4,1.7,1.5,1.7l1,1.1l1.6-3.3c8.8-1.3,17.5-3,26.1-5l0.9,3.6c0.1,0.5,0.6,0.8,1.2,0.7
	c0.9-0.2,1.8-0.4,2.7-0.7c3.5-0.9,8.2,0.4,10.6,2.9c0.9,1,2.5,1.4,4,1.6c-1.2,1-2.3,2.3-2.5,3.5c-0.7,3.4-4.3,7-8,7.9
	c-0.9,0.2-1.9,0.5-2.8,0.7C189.7,272.1,189.4,272.6,189.6,273.1 M95.2,199.9l8.5-11.5l-4.3,23l-2.3,3.1L95.2,199.9z M82.2,214.2
	l-2-14.6l11-14.8l2,14.6L82.2,214.2z M69.7,213.7l8.8-11.9l2,14.6l-11,14.9l-1.6-11.8L69.7,213.7z M82.6,217l11-14.8l2,14.5
	l-11,14.8L82.6,217z M98.7,215.7l-0.8,4.1l-0.4-2.6L98.7,215.7z M78.2,199.1l-6.7,9l5.5-17.7L78.2,199.1z M94.8,197.2l-2-14.6
	l2.9-3.8c2.4,2.4,5,4.6,7.8,6.7L94.8,197.2z M92.5,179.9l-0.7-5.4c0.8,1,1.7,2,2.6,2.9L92.5,179.9z M90.8,182.1l-11,14.8l-1.5-10.8
	l2.4-7.5l7-9.4c0.6,0.8,1.7,2.5,1.7,2.5L90.8,182.1z M82.5,172.9l2.5-8.1c0.5,0.9,1,1.7,1.6,2.5L82.5,172.9z M66.6,223.8l1.3,9.7
	l-5.6,7.6c-0.3-0.1-0.7-0.2-1-0.3L66.6,223.8z M68.3,236.3l0.9,6.9c-0.8,0.3-1.6,0.6-2.3,1.1c-0.8-1-1.7-1.8-2.8-2.4L68.3,236.3z
	 M71.1,242.8l-1.2-8.7l11-14.9l2,14.5l-7.2,9.7c-0.7-0.2-1.4-0.4-2.1-0.5C72.8,242.7,72,242.7,71.1,242.8 M83.3,236.5l1.1,7.9
	c-1.7,0.2-3.2,0.8-4.6,1.8c-0.7-0.7-1.4-1.4-2.2-1.9L83.3,236.5z M86.5,244.4c0,0-0.1,0-0.1,0L85,234.2l11-14.8l0.9,6.4l-0.7,4
	l-1.7,9.1l0,0l-4.7,6.3C88.7,244.8,87.6,244.5,86.5,244.4 M93.5,243.3l-0.8,4c0,0,0,0-0.1,0.1c-0.4-0.4-0.9-0.8-1.3-1.2L93.5,243.3z
	 M96.8,236.4l3.2,5.8l6.4-7.3l2.5-46c0.6,0.3,1.2,0.7,1.8,1l-2.4,46.7l5.6,7.9l5.6-7.9l-2.4-46.6c0.6-0.3,1.2-0.7,1.9-1.1l2.5,46
	l6.4,7.3l3.2-5.8l1.8,9.6c-1.3-0.6-2.8-0.8-4.3-0.7c-2.3,0.1-4.4,1-6.1,2.5c-0.6,0-1.2,0.2-1.8,0.4c-1.2,0.5-2.1,1.5-2.5,2.7
	c-0.4,1-0.4,2.1-0.1,3.1c-2.7,0-5.5,0-8.2,0c0.3-1,0.3-2.1-0.1-3.1c-0.7-1.9-2.4-3.1-4.3-3.2c-1.7-1.5-3.8-2.4-6.1-2.5
	c-1.5-0.1-3,0.2-4.3,0.7L96.8,236.4z M129,215.7l1.1,1.5l-0.4,2.6L129,215.7z M134.1,202.1l11,14.8l-2,14.5l-11-14.8L134.1,202.1z
	 M147.1,216.4l2-14.6l8.8,11.9l1.8,5.8l-1.6,11.8L147.1,216.4z M149.5,199.1l1.2-8.7l5.5,17.7L149.5,199.1z M145.5,214.2l-11-14.8
	l2-14.6l11,14.8L145.5,214.2z M130.5,214.4l-2.3-3.1l-4.3-23l8.5,11.5L130.5,214.4z M135,247.3C135,247.3,134.9,247.3,135,247.3
	l-0.8-4.1l2.2,2.9C135.8,246.5,135.4,246.9,135,247.3 M138,245.2l-4.6-6.3v0l-1.8-9.8l-0.6-3.3l0.9-6.4l11,14.8l-1.4,10.1
	c0,0-0.1,0-0.1,0C140.1,244.5,139,244.8,138,245.2 M144.4,236.5l5.8,7.8c-0.8,0.5-1.6,1.1-2.2,1.9c-1.4-1-3-1.6-4.6-1.8L144.4,236.5
	z M151.9,243.4l-7.1-9.7l2-14.5l11,14.9l-1.2,8.7c-0.8-0.1-1.7-0.1-2.6,0C153.3,242.9,152.6,243.1,151.9,243.4 M159.4,236.3l4.2,5.6
	c-1.1,0.6-2,1.4-2.8,2.4c-0.7-0.5-1.5-0.8-2.3-1.1L159.4,236.3z M165.4,241.1l-5.6-7.6l1.3-9.7l5.3,17
	C166.1,240.9,165.7,241,165.4,241.1 M142.7,164.9l2.5,8.1l-4.1-5.5C141.7,166.6,142.2,165.7,142.7,164.9 M140,169.1l7,9.4l2.4,7.5
	l-1.5,10.8l-11-14.8l1.4-10.5C138.3,171.6,139.4,170,140,169.1 M135.2,179.9l-1.9-2.5c0.9-1,1.8-1.9,2.6-2.9L135.2,179.9z
	 M132,178.8l2.9,3.8l-2,14.6l-8.7-11.7C127,183.3,129.6,181.1,132,178.8 M108.8,255.9c3.4,0.1,6.7,0,10.1,0c0.4,0.7,1,1.4,1.5,2
	c-4.4,0.1-8.8,0.1-13.1,0C107.8,257.3,108.4,256.7,108.8,255.9 M153,252.6c-0.5-0.8-0.5-1.8-0.1-2.7c0.3-0.7,0.9-1.2,1.7-1.5
	c0.7-0.2,1.5-0.2,2.2,0.1c1.4,0.7,2,2.5,1.3,3.9l-2,4C155.3,255.6,154.2,254.2,153,252.6 M152.7,255.4c-8.9,1.2-17.9,1.9-26.9,2.3
	l0.8-2c3.3-0.1,6.5-0.3,9.8-0.6c5-0.4,10-0.9,15-1.5v0l0.1,0.1C151.8,254.3,152.3,254.9,152.7,255.4 M125.3,253.6l-1.7,4.5
	c-1-0.7-2.5-2-3.3-3.6l-0.1-0.2c-0.6-0.8-0.7-1.8-0.4-2.7c0.3-0.7,0.8-1.3,1.5-1.6c0.7-0.3,1.5-0.4,2.2-0.1c0.7,0.3,1.3,0.8,1.6,1.5
	C125.5,252.1,125.5,252.8,125.3,253.6 M104.1,249.8c0.3-0.1,0.7-0.2,1-0.2c1.2,0,2.3,0.7,2.7,1.9c0.3,0.9,0.2,1.9-0.4,2.7l-0.1,0.2
	c-0.8,1.7-2.3,2.9-3.3,3.6l-1.7-4.5c-0.3-0.7-0.2-1.5,0.1-2.2C102.8,250.6,103.4,250.1,104.1,249.8 M76.3,253.7L76.3,253.7
	c8.3,0.9,16.6,1.6,24.8,2l0.7,2c-9-0.4-18-1.1-26.9-2.3C75.4,254.9,75.8,254.3,76.3,253.7 M74.7,252.6c-1.2,1.6-2.4,3-3.1,3.9l-2-4
	c-0.7-1.4-0.1-3.2,1.3-3.9c0.4-0.2,0.8-0.3,1.3-0.3c0.3,0,0.6,0.1,0.9,0.2c0.7,0.2,1.3,0.8,1.7,1.5
	C75.2,250.8,75.2,251.8,74.7,252.6 M78.6,144.9c-4.2-14.8-4.2-28.6-3.9-34.7c1.5,0.2,3,0.3,4.5,0.3c6.7,0,13.1-2,18.6-5.7l15.9-10.6
	l15.9,10.6c5.5,3.7,12,5.7,18.6,5.7c1.5,0,3-0.1,4.5-0.3c0.3,6.1,0.3,19.9-3.9,34.7c-5.9,20.8-17.8,35.8-35.2,44.5
	C96.4,180.7,84.6,165.7,78.6,144.9 M47.9,240c2.2,0.5,4,1.8,5.1,3.8c0.1,0.1,0.1,0.2,0.2,0.2c0.3,0.3,0.8,0.3,1.2,0
	c1.8-1.3,4-1.8,6.2-1.4c2.2,0.4,4.1,1.7,5.3,3.5c0.1,0.2,0.4,0.4,0.7,0.4c0.3,0,0.5,0,0.8-0.2c1.7-1.4,3.9-2,6.1-1.7
	c2.2,0.3,4.1,1.5,5.4,3.3c0.2,0.2,0.4,0.4,0.7,0.4c0.3,0,0.5-0.1,0.7-0.2c1.7-1.5,3.8-2.1,6-1.9c2.2,0.2,4.2,1.3,5.6,3
	c0.2,0.2,0.4,0.3,0.7,0.4c0.3,0,0.5-0.1,0.7-0.3c1.6-1.5,3.7-2.3,5.9-2.2c1.3,0.1,2.6,0.5,3.7,1.1c-0.9,0.5-1.7,1.3-2.1,2.2
	c-0.5,1-0.5,2.1-0.3,3.1c-7.9-0.3-15.7-1-23.5-2c0.1-0.9-0.1-1.8-0.5-2.7c-0.6-1.2-1.6-2-2.8-2.4c-1.2-0.4-2.5-0.3-3.7,0.2
	c-1.4,0.7-2.3,2-2.6,3.5c-6.5-1-12.9-2.2-19.3-3.7c-1.8-0.4-3.6-0.8-5.4-1.3c0.4-1.2,0.3-2.4-0.2-3.5c-0.2-0.4-0.4-0.7-0.6-1
	C43.7,239.8,45.8,239.5,47.9,240 M35.8,245.6c-0.6-0.8-0.7-1.8-0.4-2.7c0.6-1.5,2.2-2.3,3.7-1.7c0.7,0.3,1.3,0.8,1.6,1.5
	c0.3,0.7,0.4,1.5,0.1,2.2l-1.7,4.5c-1-0.7-2.5-2-3.3-3.6L35.8,245.6z M208,261.5c-0.9,0.6-2.1,1.6-2.6,2.2c-0.1,0.1-0.1,0.2-0.2,0.4
	c-0.9,4.4-5.1,8.9-9.9,10.6c-0.5,0.2-0.7,0.7-0.6,1.1l1,3.7c-53.6,13.7-110.2,13.7-163.8,0l1-3.7c0.1-0.5-0.1-1-0.6-1.1
	c-4.8-1.7-8.9-6.2-9.9-10.6c0-0.1-0.1-0.3-0.2-0.4c-0.5-0.6-1.7-1.6-2.6-2.2c-1-0.9-1.4-2.1-1-3.3c0.4-1.2,1.4-2,2.7-2.2
	c1,0,2.6-0.1,3.3-0.4c0.1,0,0.2-0.1,0.3-0.2c3.1-3.1,8.6-4.8,13.3-4.1c0,0,0.1,0,0.1,0c0.5,0.3,0.8,0.5,0.8,0.5l1,0.5l1.8-5
	c1.9,0.5,3.8,0.9,5.7,1.4c0,0,0,0,0.1,0c6.5,1.5,13.1,2.7,19.6,3.8c0.1,0.3,0.2,0.7,0.4,1l0.6,1.2c-8.6-1.3-17.1-3-25.5-5
	c-0.3-0.1-0.5,0-0.7,0.1c-0.2,0.1-0.4,0.3-0.4,0.6l-0.9,3.6c-0.6-0.1-1.2-0.3-1.7-0.4c-4.1-1-9.6,0.5-12.4,3.5
	c-0.9,1-4.2,1.2-5.2,1.2c-0.4,0-0.7,0.1-0.9,0.5c-0.3,0.4-0.1,1.1,0.3,1.4c2.1,1.4,3.6,2.9,3.8,3.9c0.8,4.1,5,8.3,9.4,9.4
	c0.6,0.2,1.3,0.3,1.9,0.5l-0.9,3.6c-0.1,0.5,0.2,1,0.7,1.2c25.5,6.2,51.8,9.3,78,9.3c26.2,0,52.5-3.1,78-9.3
	c0.5-0.1,0.8-0.6,0.7-1.2l-0.9-3.6c0.6-0.2,1.3-0.3,1.9-0.5c4.4-1.1,8.6-5.3,9.4-9.4c0.2-0.9,1.7-2.5,3.8-3.9
	c0.4-0.3,0.6-0.9,0.3-1.4c-0.2-0.3-0.5-0.5-0.9-0.5c-1,0-4.3-0.2-5.2-1.2c0,0,0,0,0,0c-2.8-3-8.3-4.5-12.4-3.5
	c-0.6,0.1-1.1,0.3-1.7,0.4l-0.9-3.6c-0.1-0.5-0.6-0.8-1.2-0.7c-8.4,2.1-17,3.7-25.5,5l0.6-1.2c0.2-0.3,0.3-0.7,0.4-1
	c3.8-0.6,7.5-1.3,11.3-2c4.7-0.9,9.4-2,14.1-3.1l1.8,5l1-0.5c0,0,0.4-0.2,0.8-0.5c0,0,0.1,0,0.1,0c4.7-0.7,10.2,1,13.3,4.1
	c0.1,0.1,0.2,0.2,0.3,0.2c0.8,0.3,2.4,0.5,3.3,0.4c1.3,0.2,2.4,1,2.7,2.2C209.4,259.4,209,260.6,208,261.5"/>
<path class="st1" d="M85.6,268.4c-0.3,2.2-1.1,3.8-2.5,5c-0.5,0.4-1.2,0.9-2.2,1.4c-1,0.6-1.7,1-2.2,1.4c-0.1,0.1-0.3,0.3-0.8,0.8
	c-1.2-0.7-2.4-1.5-3.6-2.2c-0.2,1-0.4,2-0.5,3.1c-0.1,0.4,0.1,0.8,0.5,1.2c0.3,0.3,0.6,0.5,0.8,0.6c0,0,0,0,0.1,0c0,0.4,0,0.6,0,0.6
	c-1.6-0.3-3.6-0.3-5.9,0c-0.1-0.1-0.1-0.3-0.2-0.4c0.6-0.3,1.1-0.6,1.4-0.8c0.3-0.3,0.5-0.8,0.6-1.4c0.4-2.3,0.7-3.7,0.8-4.2
	c-0.5-0.3-1.3-0.8-2.5-1.5c0.3-0.3,1-0.8,2.1-1.7c0.3,0.2,0.6,0.5,0.9,0.7c0-0.2,0.2-1.4,0.7-3.7c0.2-0.9,0.2-1.6,0.2-2
	c0-0.8-0.3-1.4-0.8-1.7c0-0.1,0-0.2,0.1-0.4c0.3,0,0.7,0,1,0c1.1-0.1,2.5-0.4,4.2-1.1c0.1,0,0.6-0.3,1.4-0.7
	c0.7-0.3,1.1-0.5,1.4-0.5c1.4,0.4,2.7,1.4,3.7,3C85.4,265.4,85.8,266.9,85.6,268.4 M83.7,270.2c0.2-1.6-0.2-3.1-1.3-4.7
	c-1.1-1.6-2.4-2.5-3.9-2.7c-0.7-0.1-1.3,0-1.6,0.4c-0.3,0.3-0.5,0.8-0.6,1.5c0,0.1-0.1,0.3-0.1,0.7c-0.1,0.4-0.1,0.6-0.1,0.8
	c0,0.1-0.1,0.5-0.2,1.2c-0.1,0.6-0.2,1.2-0.3,1.7c-0.2,1-0.3,1.9-0.5,2.9c0,0.1,0,0.2,0,0.3c0.2,0.2,0.8,0.6,2,1.2
	c1.2,0.6,1.9,0.9,2.2,1c1.1,0.2,2.1-0.3,3-1.3C83,272.2,83.5,271.3,83.7,270.2"/>
<path class="st1" d="M95.5,281.1c0,0.1-0.4,0.4-1.1,0.8c-0.7,0.4-1.2,0.6-1.4,0.6c-0.5,0-0.9-0.4-1.1-0.9c-0.2-0.4-0.2-0.9-0.2-1.4
	c0,0-0.1,0-0.1,0c-0.3,0.1-0.9,0.4-2,1c-1.1,0.6-1.7,0.9-1.8,0.8c-0.8-0.1-1.5-0.7-2.1-1.7c-0.6-1-0.8-1.8-0.7-2.6
	c0.2-1.2,0.6-2.2,1.4-2.9c0.5-0.5,1.4-1,2.5-1.6c1.4-0.7,2.3-1.2,2.9-1.5c0.1-0.1,0.2-0.2,0.3-0.4c1,0.8,1.8,1.4,2.4,1.7
	c0.2,0.1,0.4,0.2,0.8,0.3c0.4,0.2,0.6,0.4,0.6,0.5c0,0.3-0.4,0.6-1.2,0.8c-0.1,1.7-0.3,3.4-0.4,5.2c0,0.2,0,0.3,0,0.5
	c0,0.4,0.1,0.6,0.5,0.6c0.5-0.1,0.7-0.1,0.6-0.1C95.4,280.7,95.5,280.9,95.5,281.1 M92.3,274.2c-0.9-0.8-1.5-1.2-1.7-1.2
	c-0.1,0-0.4,0.1-0.8,0.3c-0.5,0.2-0.8,0.4-0.9,0.5c-1,0.8-1.6,1.6-1.7,2.6c-0.2,1.4,0.4,2.5,1.8,3.3c0.3,0.2,0.6,0.3,0.7,0.3
	c0.3,0,0.7-0.1,1.2-0.3c0.6-0.2,0.9-0.4,0.9-0.7C91.9,277.5,92.1,275.8,92.3,274.2"/>
<path class="st1" d="M102.9,266.9c0,0.1,0.1,0.2,0.1,0.3c-0.2,0-0.3,0.1-0.4,0.1c-0.9,0-1.4,1-1.5,3.1c-0.2,3.1-0.4,6.3-0.5,9.4
	c0.1,0.8,0.5,1.3,1.3,1.4c0.1,0,0.3,0,0.5-0.2c0,0.1,0.1,0.1,0.1,0.2c-0.8,0.6-1.6,1.1-2.4,1.7c-0.9-0.6-1.8-1.2-2.7-1.8
	c0-0.1,0-0.2,0.1-0.2c0.5,0,0.8-0.5,0.9-1.4c0.2-3.4,0.5-6.8,0.7-10.2c0-0.6-0.1-1-0.5-1.4c-0.1-0.1-0.2-0.1-0.2-0.2
	c0-0.1,0.1-0.2,0.1-0.3c0.8,0.1,1.4,0.1,1.8,0c1.3-0.4,2.1-0.6,2.4-0.6C102.6,266.8,102.8,266.8,102.9,266.9"/>
<path class="st1" d="M112.2,276.9c0,0.1-0.1,0.1-0.2,0.2c-0.3,0.2-2,1-5.2,2.3c0,0,0.1,0.1,0.1,0.1c1,1.1,2,1.6,3.1,1.6
	c0.3,0,0.6-0.1,0.9-0.2c0.3-0.1,0.5-0.2,0.5-0.2c0.1-0.1,0.2-0.1,0.3-0.2c0.1,0.1,0.2,0.2,0.2,0.3c-0.1,0.2-0.7,0.7-1.8,1.4
	c-1.2,0.7-1.9,1-2.2,1c-1,0-1.9-0.7-2.8-2c-0.8-1.2-1.2-2.3-1.1-3.2c0.1-1.2,0.6-2.4,1.6-3.6c1-1.2,2.2-1.9,3.4-2.1
	c0.1,0,0.2-0.1,0.3-0.1c0,0,0.1,0,0.2,0c0.1,0,0.1,0.1,0.1,0.1c0.2,0.2,0.6,0.9,1.3,2.1c0.4,0.7,0.8,1.4,1.2,2.1
	C112.1,276.7,112.2,276.7,112.2,276.9 M109.8,277.3c-0.2-0.4-0.6-1-1-1.7c-0.4-0.7-0.8-1.3-1.1-1.7c-0.4,0.1-0.7,0.4-1.1,0.9
	c-0.4,0.5-0.6,0.9-0.6,1.3c0,0,0,0.2,0,0.4s0,0.4,0,0.5c0,0.7,0.2,1.3,0.6,1.9c0.4-0.1,1-0.4,1.8-0.8
	C109.2,277.7,109.7,277.4,109.8,277.3"/>
<path class="st1" d="M122,281.3c-0.4,0.3-0.8,0.6-1.1,0.9c-0.4,0.4-0.8,0.7-1,1c-2.2,0-4.4,0.1-6.6,0.1c0.7-0.7,1.3-1.4,2-2.1
	c1.6,0,3.2,0,4.8-0.1c0.5,0,1-0.1,1.4-0.4c0.5-0.3,0.7-0.7,0.7-1.1c0-0.3-0.2-0.6-0.6-0.7c-0.4-0.2-0.8-0.2-1.1-0.2
	c-1.3,0.1-2.5,0.2-3.8,0.3c-0.8,0-1.4-0.1-1.9-0.6c-0.5-0.4-0.7-1-0.7-1.7c0-0.7,0.3-1.4,0.8-2c0.2-0.2,0.7-0.6,1.4-1.1
	c0.6-0.4,1.2-0.8,1.8-1.3c0.2,0,0.3,0.1,0.4,0.1c1.2,0.5,2,0.7,2.3,0.7c0.2,0,0.5-0.2,0.8-0.4c0.1,0.1,0.2,0.1,0.4,0.2
	c-0.7,0.7-1.4,1.5-2.1,2.2c-1.4-0.5-2.3-0.8-2.8-0.8c-0.4,0-0.9,0.1-1.2,0.4s-0.6,0.6-0.5,1c0,0.3,0.2,0.5,0.4,0.7
	c0.3,0.2,0.6,0.3,0.9,0.3c0.3,0,0.9,0,1.5-0.1c0.7-0.1,1.2-0.1,1.6-0.1c0.9-0.1,1.7,0.1,2.3,0.6c0.6,0.5,0.9,1.2,0.9,2
	C123.2,279.8,122.8,280.6,122,281.3"/>
<path class="st1" d="M130.4,281.4c-1.3,1.1-2.1,1.7-2.4,1.7c-0.2,0-0.7-0.1-1.5-0.5c-0.8-0.3-1.2-0.5-1.2-0.6c0,0,0.1-0.2,0.4-0.4
	c0.3-0.2,0.4-0.5,0.4-0.9c-0.1-1.6-0.2-4-0.3-7c-0.5,0-0.9,0-1.4,0.1c-0.1,0-0.1-0.1-0.1-0.2c0-0.1,0-0.2,0-0.2
	c0.6-0.4,1.3-1.2,1.9-2.3c0.2-0.3,0.6-1.2,1.2-2.8c0.1-0.1,0.1-0.1,0.2-0.1s0.1,0,0.1,0.1c0.1,1.3,0.2,2.6,0.2,3.9
	c0.6,0,1.2-0.1,1.9-0.1c0,0.4,0.1,0.9,0.1,1.3c-0.6,0-1.2,0.1-1.9,0.1c0,0.9,0.1,2.1,0.2,3.7c0.2,2.2,0.3,3.4,0.3,3.7
	c0.3,0.3,0.6,0.5,1,0.5c0,0,0.1-0.1,0.3-0.2c0.2-0.1,0.3-0.2,0.3-0.2C130.2,281,130.3,281.1,130.4,281.4"/>
<path class="st1" d="M137.2,280.4c-0.2,0.2-0.6,0.6-1,1.1c-0.4,0.5-0.8,0.8-1.1,0.9c-0.9,0.1-1.6-0.8-2.1-2.4
	c-0.2-1.8-0.3-3.7-0.5-5.5c-0.1-0.9-0.3-1.3-0.7-1.2c-0.2,0-0.4,0.1-0.6,0.3c-0.1-0.1-0.1-0.1-0.2-0.2c0.6-0.7,1.2-1.3,1.9-1.9
	c0.2-0.2,0.5-0.2,0.8-0.1c0.3,0.2,0.9,0.5,2,1.1c0,0,0,0.1,0,0.2c-0.2,0.2-0.4,0.5-0.6,0.7c-0.1,0.1-0.1,0.7,0,1.8
	c0.1,1.5,0.3,3.1,0.4,4.6c0.4,0.6,0.7,0.9,0.9,0.8c0.2-0.1,0.4-0.2,0.6-0.3C137.1,280.1,137.2,280.2,137.2,280.4 M134.2,267.2
	c0,0.3-0.1,0.8-0.3,1.5c-0.2,0.7-0.5,1.1-0.7,1.3c0,0-0.1,0-0.2,0c-0.2,0-0.5-0.3-0.9-1.1c-0.4-0.7-0.7-1.2-0.7-1.4
	c0-0.3,0.1-0.6,0.3-0.9c0.3-0.3,0.6-0.4,0.9-0.5c0.4,0,0.7,0,1,0.2C134,266.6,134.1,266.8,134.2,267.2"/>
<path class="st1" d="M140.9,273.9c0.3,2.5,0.6,5,0.9,7.5c-0.8,0.1-1.6,0.2-2.4,0.3c-0.3-2.7-0.6-5.4-0.9-8c0-0.1-0.1-0.3-0.2-0.6
	c-0.1-0.1-0.3-0.1-0.4-0.1c-0.1,0-0.2,0.1-0.4,0.2c-0.1-0.1-0.2-0.1-0.3-0.2c0.6-0.7,1.1-1.3,1.6-1.9c0.1-0.1,0.2-0.1,0.3-0.2
	c-0.2,0-0.1,0.1,0.3,0.3c0.5,0.2,0.8,0.4,0.9,0.4c0.2,0.2,0.4,0.4,0.4,0.7c0,0.2,0.1,0.4,0.1,0.6c0,0.1,0.1,0.2,0.1,0.4
	c1.2-1,2.2-1.9,3-2.7c0.2-0.2,0.3-0.3,0.5-0.3c0.1,0,0.2,0,0.4,0.1c0.2,0,1.1,0.3,2.8,0.9c0,0.1,0,0.2,0.1,0.3
	c-0.2,0-0.4,0.1-0.6,0.2c-0.2,0.2-0.3,0.4-0.2,0.8c0.3,1.9,0.6,3.9,0.9,5.8c0,0.1,0.1,0.3,0.2,0.4c0.2,0.2,0.3,0.2,0.5,0.2
	c0.1,0,0.3-0.1,0.6-0.3c0.1,0,0.1,0.1,0.2,0.2c-0.2,0.3-0.7,0.8-1.3,1.7c-0.2,0.2-0.4,0.4-0.5,0.4c-0.1,0-0.2,0-0.4-0.1
	c0,0-0.1-0.1-0.2-0.2c-0.5-0.2-0.8-0.4-1-0.6c-0.2-0.2-0.4-0.6-0.5-1c-0.3-2-0.6-4-0.8-6c0-0.3-0.2-0.5-0.4-0.6
	c-0.2-0.2-0.4-0.2-0.7-0.2c-0.2,0-0.6,0.3-1.3,0.9C141.9,273.2,141.5,273.5,140.9,273.9"/>
<path class="st1" d="M158.2,272.5c0,0.1-0.1,0.2-0.1,0.2c-0.2,0.2-1.7,1.4-4.6,3.4c0,0,0.1,0.1,0.1,0.1c1.2,0.8,2.3,1.1,3.3,0.9
	c0.3-0.1,0.6-0.2,0.9-0.4c0.3-0.2,0.5-0.3,0.5-0.3c0.1-0.1,0.2-0.2,0.2-0.3c0.1,0.1,0.2,0.2,0.3,0.3c0,0.2-0.5,0.8-1.5,1.7
	c-1,0.9-1.7,1.4-1.9,1.4c-1,0.2-2-0.3-3.2-1.4c-1-1-1.6-2-1.7-2.9c-0.2-1.2,0.1-2.5,0.8-3.9c0.8-1.4,1.7-2.3,2.9-2.7
	c0.1,0,0.2-0.1,0.3-0.1c0,0,0.1,0,0.2,0c0.1,0,0.1,0,0.1,0c0.2,0.2,0.8,0.8,1.7,1.8c0.5,0.6,1.1,1.2,1.6,1.8
	C158.1,272.3,158.2,272.4,158.2,272.5 M155.9,273.4c-0.3-0.3-0.8-0.8-1.4-1.5c-0.6-0.6-1.1-1.1-1.5-1.4c-0.3,0.2-0.6,0.6-0.9,1.1
	c-0.3,0.6-0.4,1-0.3,1.4c0,0,0,0.2,0,0.4c0,0.2,0,0.4,0.1,0.5c0.1,0.7,0.5,1.2,1,1.7c0.4-0.2,0.9-0.6,1.6-1.1
	C155.5,273.9,155.9,273.5,155.9,273.4"/>
<path class="st2" d="M145.3,117c-0.7,0-1.4,0.1-2.1,0.1c-6,0-11.9-1.8-16.9-5.1l-12.5-8.4l-12.5,8.3c-5,3.4-10.9,5.1-16.9,5.1
	c-0.7,0-1.4,0-2.1-0.1l31.5,20.1L145.3,117z"/>
<path class="st3" d="M103.4,133.2l-21-13.5c0,6,0.7,14.9,3.3,24.2c4.2,14.7,11.9,25.8,23,33.3L103.4,133.2z"/>
<path class="st4" d="M124.3,133.2l21-13.5c0,6-0.7,14.9-3.3,24.2c-4.2,14.7-11.9,25.8-23,33.3L124.3,133.2z"/>
</svg>
