<?xml version="1.0" encoding="utf-8"?>
<!-- Generator: Adobe Illustrator 25.0.0, SVG Export Plug-In . SVG Version: 6.00 Build 0)  -->
<svg version="1.1" id="Layer_1" xmlns="http://www.w3.org/2000/svg" xmlns:xlink="http://www.w3.org/1999/xlink" x="0px" y="0px"
	 viewBox="0 0 555 280" style="enable-background:new 0 0 555 280;" xml:space="preserve">
<style type="text/css">
	.st0{fill:#FFFFFF;}
	.st1{fill:#D2B22A;}
	.st2{fill:#E20613;}
	.st3{fill:#009540;}
	.st4{fill:#1D1D1B;}
</style>
<g>
	<path class="st0" d="M226.3,40.4v20.3h-7.4v-50h8.4c4.1,0,7.3,0.3,9.4,0.9c2.1,0.6,4,1.7,5.6,3.3c2.8,2.8,4.3,6.4,4.3,10.6
		c0,4.6-1.5,8.2-4.5,10.9c-3,2.7-7.1,4-12.2,4H226.3z M226.3,33.4h2.8c6.8,0,10.3-2.7,10.3-8c0-5.2-3.5-7.7-10.6-7.7h-2.5V33.4z"/>
	<path class="st0" d="M275.8,29.2h7.2v31.6h-7.2v-3.3c-3,2.8-6.1,4.2-9.6,4.2c-4.3,0-7.9-1.6-10.7-4.7c-2.8-3.2-4.2-7.2-4.2-12.1
		c0-4.7,1.4-8.7,4.2-11.8c2.8-3.2,6.3-4.7,10.5-4.7c3.6,0,6.9,1.5,9.8,4.5V29.2z M258.7,44.9c0,3,0.8,5.5,2.4,7.4
		c1.6,1.9,3.7,2.9,6.2,2.9c2.7,0,4.8-0.9,6.5-2.8c1.6-1.9,2.5-4.4,2.5-7.3c0-3-0.8-5.4-2.5-7.3c-1.6-1.9-3.8-2.8-6.4-2.8
		c-2.5,0-4.5,1-6.2,2.9C259.6,39.6,258.7,42,258.7,44.9z"/>
	<path class="st0" d="M299.3,6v54.7h-7.2V6H299.3z"/>
	<path class="st0" d="M336.8,46.7h-22.3c0.2,2.6,1,4.7,2.5,6.2c1.5,1.5,3.4,2.3,5.7,2.3c1.8,0,3.3-0.4,4.4-1.3
		c1.2-0.9,2.5-2.5,3.9-4.8l6.1,3.4c-0.9,1.6-1.9,3-3,4.2c-1,1.2-2.2,2.1-3.4,2.9c-1.2,0.7-2.5,1.3-3.9,1.6s-2.9,0.5-4.5,0.5
		c-4.6,0-8.4-1.5-11.2-4.5c-2.8-3-4.2-7.1-4.2-12.1c0-5,1.4-9,4.1-12.1c2.7-3,6.4-4.6,10.9-4.6c4.6,0,8.2,1.5,10.9,4.4
		c2.6,2.9,4,7,4,12.2L336.8,46.7z M329.4,40.7c-1-3.9-3.4-5.8-7.3-5.8c-0.9,0-1.7,0.1-2.5,0.4c-0.8,0.3-1.5,0.7-2.1,1.2
		c-0.6,0.5-1.2,1.1-1.6,1.8c-0.4,0.7-0.8,1.5-1,2.4H329.4z"/>
	<path class="st0" d="M362.7,34.5l-5.9,3.2c-0.9-1.9-2.1-2.9-3.5-2.9c-0.7,0-1.2,0.2-1.7,0.7c-0.5,0.4-0.7,1-0.7,1.7
		c0,1.2,1.4,2.4,4.2,3.6c3.8,1.7,6.4,3.2,7.7,4.6c1.3,1.4,2,3.3,2,5.7c0,3-1.1,5.6-3.3,7.6c-2.2,1.9-4.8,2.9-7.8,2.9
		c-5.2,0-8.9-2.6-11.1-7.7l6.1-2.9c0.9,1.5,1.5,2.5,2,2.9c0.9,0.8,1.9,1.2,3.1,1.2c2.4,0,3.6-1.1,3.6-3.4c0-1.3-0.9-2.5-2.8-3.6
		c-0.7-0.4-1.4-0.7-2.2-1.1c-0.7-0.3-1.5-0.7-2.2-1.1c-2.1-1-3.6-2.1-4.4-3.1c-1.1-1.3-1.6-3-1.6-5.1c0-2.7,0.9-5,2.8-6.8
		c1.9-1.8,4.2-2.7,6.9-2.7C357.8,28.3,360.8,30.4,362.7,34.5z"/>
	<path class="st0" d="M378.6,36v24.8h-7.2V36h-3.1v-6.8h3.1V17.6h7.2v11.6h5.6V36H378.6z"/>
	<path class="st0" d="M388,16c0-1.3,0.5-2.4,1.4-3.3c0.9-0.9,2-1.4,3.3-1.4c1.3,0,2.4,0.5,3.3,1.4c0.9,0.9,1.4,2,1.4,3.3
		c0,1.3-0.5,2.4-1.4,3.4c-0.9,0.9-2,1.4-3.3,1.4c-1.3,0-2.4-0.5-3.3-1.4C388.5,18.5,388,17.4,388,16z M396.3,29.2v31.6h-7.2V29.2
		H396.3z"/>
	<path class="st0" d="M405.4,29.2h7.2v2.9c2.5-2.5,5.4-3.8,8.5-3.8c3.6,0,6.4,1.2,8.5,3.5c1.7,2,2.6,5.2,2.6,9.6v19.3H425V43.1
		c0-3.1-0.4-5.3-1.3-6.4c-0.8-1.2-2.3-1.8-4.5-1.8c-2.4,0-4.1,0.8-5.1,2.4c-1,1.6-1.5,4.3-1.5,8.3v15.2h-7.2V29.2z"/>
	<path class="st0" d="M440.2,16c0-1.3,0.5-2.4,1.4-3.3c0.9-0.9,2-1.4,3.3-1.4c1.3,0,2.4,0.5,3.3,1.4c0.9,0.9,1.4,2,1.4,3.3
		c0,1.3-0.5,2.4-1.4,3.4c-0.9,0.9-2,1.4-3.3,1.4c-1.3,0-2.4-0.5-3.3-1.4C440.7,18.5,440.2,17.4,440.2,16z M448.5,29.2v31.6h-7.2
		V29.2H448.5z"/>
	<path class="st0" d="M480.6,29.2h7.2v31.6h-7.2v-3.3c-3,2.8-6.2,4.2-9.6,4.2c-4.3,0-7.9-1.6-10.7-4.7c-2.8-3.2-4.2-7.2-4.2-12.1
		c0-4.7,1.4-8.7,4.2-11.8c2.8-3.2,6.3-4.7,10.5-4.7c3.6,0,6.9,1.5,9.8,4.5V29.2z M463.5,44.9c0,3,0.8,5.5,2.4,7.4
		c1.6,1.9,3.7,2.9,6.2,2.9c2.7,0,4.8-0.9,6.5-2.8c1.6-1.9,2.5-4.4,2.5-7.3c0-3-0.8-5.4-2.5-7.3c-1.6-1.9-3.8-2.8-6.4-2.8
		c-2.5,0-4.5,1-6.2,2.9C464.3,39.6,463.5,42,463.5,44.9z"/>
	<path class="st0" d="M496.9,29.2h7.2v2.9c2.5-2.5,5.4-3.8,8.5-3.8c3.6,0,6.4,1.2,8.5,3.5c1.7,2,2.6,5.2,2.6,9.6v19.3h-7.2V43.1
		c0-3.1-0.4-5.3-1.3-6.4c-0.8-1.2-2.3-1.8-4.5-1.8c-2.4,0-4.1,0.8-5.1,2.4c-1,1.6-1.5,4.3-1.5,8.3v15.2h-7.2V29.2z"/>
	<path class="st0" d="M243.5,83.2h-17.2v12h16.6v7.1h-16.6v23.8h-7.4v-50h24.7V83.2z"/>
	<path class="st0" d="M250.8,94.6h7.2v2.8c1.3-1.4,2.5-2.4,3.5-2.9c1-0.5,2.3-0.8,3.7-0.8c1.9,0,3.9,0.6,5.9,1.9l-3.3,6.7
		c-1.4-1-2.7-1.5-4-1.5c-3.9,0-5.9,3-5.9,9v16.4h-7.2V94.6z"/>
	<path class="st0" d="M303.6,112.1h-22.3c0.2,2.6,1,4.7,2.5,6.2c1.5,1.5,3.4,2.3,5.7,2.3c1.8,0,3.3-0.4,4.4-1.3
		c1.2-0.9,2.5-2.5,3.9-4.8l6.1,3.4c-0.9,1.6-1.9,3-3,4.2c-1,1.2-2.2,2.1-3.4,2.9c-1.2,0.7-2.5,1.3-3.9,1.6s-2.9,0.5-4.5,0.5
		c-4.6,0-8.4-1.5-11.2-4.5c-2.8-3-4.2-7.1-4.2-12.1c0-5,1.4-9,4.1-12.1c2.8-3,6.4-4.6,10.9-4.6c4.6,0,8.2,1.5,10.9,4.4
		c2.6,2.9,4,7,4,12.2L303.6,112.1z M296.2,106.1c-1-3.9-3.4-5.8-7.3-5.8c-0.9,0-1.7,0.1-2.5,0.4c-0.8,0.3-1.5,0.7-2.1,1.2
		c-0.6,0.5-1.2,1.1-1.6,1.8c-0.4,0.7-0.8,1.5-1,2.4H296.2z"/>
	<path class="st0" d="M334.4,143.3v-20.7c-2.9,3-6.1,4.4-9.8,4.4c-4.2,0-7.7-1.6-10.5-4.7c-2.8-3.2-4.2-7.1-4.2-11.8
		c0-4.8,1.4-8.8,4.2-12c2.8-3.2,6.3-4.8,10.6-4.8c3.6,0,6.8,1.4,9.7,4.3v-3.4h7.2v48.7H334.4z M317.4,110.2c0,3,0.8,5.5,2.4,7.4
		c1.6,1.9,3.7,2.9,6.2,2.9c2.6,0,4.8-0.9,6.4-2.8c1.7-1.9,2.5-4.3,2.5-7.3c0-3-0.8-5.4-2.5-7.3c-1.6-1.9-3.8-2.8-6.4-2.8
		c-2.5,0-4.5,1-6.2,2.9C318.2,105.1,317.4,107.4,317.4,110.2z"/>
	<path class="st0" d="M357.9,94.6v18.1c0,5.2,2,7.8,6.1,7.8s6.1-2.6,6.1-7.8V94.6h7.2v18.3c0,2.5-0.3,4.7-0.9,6.5
		c-0.6,1.6-1.6,3.1-3.1,4.4c-2.4,2.1-5.5,3.2-9.3,3.2c-3.7,0-6.8-1.1-9.2-3.2c-1.5-1.3-2.5-2.8-3.2-4.4c-0.6-1.5-0.9-3.7-0.9-6.5
		V94.6H357.9z"/>
	<path class="st0" d="M414.8,112.1h-22.3c0.2,2.6,1,4.7,2.5,6.2c1.5,1.5,3.4,2.3,5.7,2.3c1.8,0,3.3-0.4,4.4-1.3
		c1.2-0.9,2.5-2.5,3.9-4.8l6.1,3.4c-0.9,1.6-1.9,3-3,4.2c-1,1.2-2.2,2.1-3.4,2.9c-1.2,0.7-2.5,1.3-3.9,1.6s-2.9,0.5-4.5,0.5
		c-4.6,0-8.4-1.5-11.2-4.5c-2.8-3-4.2-7.1-4.2-12.1c0-5,1.4-9,4.1-12.1c2.7-3,6.4-4.6,10.9-4.6c4.6,0,8.2,1.5,10.9,4.4
		c2.6,2.9,4,7,4,12.2L414.8,112.1z M407.4,106.1c-1-3.9-3.4-5.8-7.3-5.8c-0.9,0-1.7,0.1-2.5,0.4c-0.8,0.3-1.5,0.7-2.1,1.2
		c-0.6,0.5-1.2,1.1-1.6,1.8c-0.4,0.7-0.8,1.5-1,2.4H407.4z"/>
	<path class="st0" d="M422.7,94.6h7.2v2.9c2.5-2.5,5.4-3.8,8.5-3.8c3.6,0,6.4,1.2,8.5,3.5c1.7,2,2.6,5.2,2.6,9.6v19.3h-7.2v-17.6
		c0-3.1-0.4-5.3-1.3-6.4c-0.8-1.2-2.3-1.8-4.5-1.8c-2.4,0-4.1,0.8-5.1,2.4c-1,1.6-1.5,4.3-1.5,8.3v15.2h-7.2V94.6z"/>
	<path class="st0" d="M482.8,95.9v9.7c-1.6-2-3.1-3.4-4.4-4.2c-1.3-0.8-2.8-1.2-4.5-1.2c-2.7,0-5,1-6.7,2.9
		c-1.8,1.9-2.7,4.3-2.7,7.2c0,3,0.9,5.4,2.6,7.3c1.7,1.9,4,2.9,6.7,2.9c1.7,0,3.2-0.4,4.6-1.1c1.3-0.7,2.8-2.2,4.5-4.3v9.6
		c-2.9,1.5-5.8,2.3-8.8,2.3c-4.8,0-8.8-1.6-12.1-4.7c-3.2-3.2-4.9-7.1-4.9-11.8c0-4.7,1.6-8.7,4.9-11.9s7.3-4.9,12.1-4.9
		C477.2,93.7,480.1,94.4,482.8,95.9z"/>
	<path class="st0" d="M499.6,120.3l-14-25.7h8.3l9.5,18.1l8.9-18.1h8.1l-24.8,48.7h-8.2L499.6,120.3z"/>
	<path class="st0" d="M226.3,141.5v50h-7.4v-50H226.3z"/>
	<path class="st0" d="M236.8,160h7.2v2.9c2.5-2.5,5.3-3.8,8.5-3.8c3.6,0,6.4,1.2,8.5,3.5c1.7,2,2.6,5.2,2.6,9.6v19.3h-7.2v-17.6
		c0-3.1-0.4-5.3-1.3-6.4c-0.8-1.2-2.3-1.8-4.5-1.8c-2.4,0-4.1,0.8-5.1,2.4c-1,1.6-1.5,4.3-1.5,8.3v15.2h-7.2V160z"/>
	<path class="st0" d="M280.2,166.8v24.8h-7.2v-24.8h-2.6V160h2.6v-12.2c0-4,0.7-6.8,2-8.4c1.9-2.3,4.6-3.4,8.2-3.4
		c1.3,0,2.9,0.4,4.8,1.1v7.5l-0.7-0.4c-1.6-0.8-2.8-1.2-3.8-1.2c-1.3,0-2.1,0.5-2.6,1.4c-0.4,0.9-0.7,2.7-0.7,5.2V160h7.8v6.8H280.2
		z"/>
	<path class="st0" d="M290.7,175.5c0-4.6,1.6-8.4,4.8-11.6c3.2-3.2,7.1-4.8,11.8-4.8c4.6,0,8.6,1.6,11.8,4.8
		c3.2,3.2,4.8,7.2,4.8,11.9c0,4.7-1.6,8.7-4.8,11.9c-3.2,3.2-7.2,4.8-11.9,4.8c-4.7,0-8.6-1.6-11.7-4.9
		C292.2,184.4,290.7,180.4,290.7,175.5z M298,175.7c0,3.2,0.8,5.6,2.5,7.5c1.7,1.9,4,2.8,6.7,2.8c2.8,0,5.1-0.9,6.7-2.8
		c1.7-1.8,2.5-4.3,2.5-7.4c0-3.1-0.8-5.5-2.5-7.4c-1.7-1.9-4-2.8-6.7-2.8c-2.7,0-5,0.9-6.7,2.8S298,172.7,298,175.7z"/>
	<path class="st0" d="M331.5,160h7.2v2.8c1.3-1.4,2.5-2.4,3.5-2.9c1-0.5,2.3-0.8,3.7-0.8c1.9,0,3.9,0.6,5.9,1.9l-3.3,6.7
		c-1.4-1-2.7-1.5-4-1.5c-3.9,0-5.9,3-5.9,9v16.4h-7.2V160z"/>
	<path class="st0" d="M356,160h7.2v2.9c1.4-1.5,2.6-2.5,3.5-3c1-0.5,2.4-0.8,3.9-0.8c3.5,0,6.3,1.6,8.3,4.7c2.3-3.1,5.3-4.7,9.2-4.7
		c7,0,10.5,4.3,10.5,12.9v19.5h-7.2V174c0-3-0.4-5.2-1.1-6.4c-0.7-1.3-2-1.9-3.7-1.9c-2,0-3.4,0.8-4.3,2.3c-0.9,1.5-1.4,3.9-1.4,7.3
		v16.3h-7.2v-17.4c0-5.6-1.6-8.4-4.8-8.4c-2,0-3.5,0.8-4.4,2.3c-0.9,1.5-1.4,4-1.4,7.3v16.3H356V160z"/>
	<path class="st0" d="M430.7,160h7.2v31.6h-7.2v-3.3c-3,2.8-6.2,4.2-9.6,4.2c-4.3,0-7.9-1.6-10.7-4.7c-2.8-3.2-4.2-7.2-4.2-12.1
		c0-4.7,1.4-8.7,4.2-11.8c2.8-3.2,6.3-4.7,10.5-4.7c3.6,0,6.9,1.5,9.8,4.5V160z M413.7,175.7c0,3,0.8,5.5,2.4,7.4
		c1.6,1.9,3.7,2.9,6.2,2.9c2.7,0,4.8-0.9,6.5-2.8c1.6-1.9,2.5-4.4,2.5-7.3s-0.8-5.4-2.5-7.3c-1.6-1.9-3.8-2.8-6.4-2.8
		c-2.5,0-4.5,1-6.2,2.9C414.5,170.5,413.7,172.8,413.7,175.7z"/>
	<path class="st0" d="M454.5,166.8v24.8h-7.2v-24.8h-3.1V160h3.1v-11.6h7.2V160h5.6v6.8H454.5z"/>
	<path class="st0" d="M463.9,146.9c0-1.3,0.5-2.4,1.4-3.3c0.9-0.9,2-1.4,3.3-1.4c1.3,0,2.4,0.5,3.3,1.4c0.9,0.9,1.4,2,1.4,3.3
		c0,1.3-0.5,2.4-1.4,3.4c-0.9,0.9-2,1.4-3.3,1.4c-1.3,0-2.4-0.5-3.3-1.4C464.3,149.3,463.9,148.2,463.9,146.9z M472.1,160v31.6H465
		V160H472.1z"/>
	<path class="st0" d="M479.8,175.5c0-4.6,1.6-8.4,4.8-11.6c3.2-3.2,7.1-4.8,11.8-4.8c4.6,0,8.6,1.6,11.8,4.8
		c3.2,3.2,4.8,7.2,4.8,11.9c0,4.7-1.6,8.7-4.8,11.9c-3.2,3.2-7.2,4.8-11.9,4.8c-4.7,0-8.6-1.6-11.7-4.9
		C481.4,184.4,479.8,180.4,479.8,175.5z M487.1,175.7c0,3.2,0.8,5.6,2.5,7.5c1.7,1.9,4,2.8,6.7,2.8c2.8,0,5.1-0.9,6.7-2.8
		c1.7-1.8,2.5-4.3,2.5-7.4c0-3.1-0.8-5.5-2.5-7.4c-1.7-1.9-4-2.8-6.7-2.8c-2.7,0-5,0.9-6.7,2.8S487.1,172.7,487.1,175.7z"/>
	<path class="st0" d="M520.6,160h7.2v2.9c2.5-2.5,5.4-3.8,8.5-3.8c3.6,0,6.4,1.2,8.5,3.5c1.7,2,2.6,5.2,2.6,9.6v19.3h-7.2v-17.6
		c0-3.1-0.4-5.3-1.3-6.4c-0.8-1.2-2.3-1.8-4.5-1.8c-2.4,0-4.1,0.8-5.1,2.4c-1,1.6-1.5,4.3-1.5,8.3v15.2h-7.2V160z"/>
	<path class="st0" d="M246.8,214.4l-6,3.6c-1.1-2-2.2-3.3-3.2-3.9c-1.1-0.7-2.4-1-4.1-1c-2.1,0-3.8,0.6-5.1,1.8
		c-1.4,1.2-2,2.6-2,4.4c0,2.4,1.8,4.4,5.4,5.9l4.9,2c4,1.6,6.9,3.6,8.8,6c1.9,2.4,2.8,5.3,2.8,8.7c0,4.6-1.5,8.4-4.5,11.4
		c-3,3-6.8,4.5-11.4,4.5c-4.3,0-7.8-1.3-10.6-3.9c-2.7-2.6-4.5-6.2-5.1-10.9l7.5-1.7c0.3,2.9,0.9,5,1.8,6.1c1.5,2.2,3.8,3.2,6.7,3.2
		c2.3,0,4.3-0.8,5.8-2.4s2.3-3.6,2.3-6c0-1-0.1-1.9-0.4-2.7c-0.3-0.8-0.7-1.6-1.2-2.2c-0.6-0.7-1.3-1.3-2.2-1.9
		c-0.9-0.6-2-1.2-3.2-1.7l-4.8-2c-6.8-2.9-10.1-7.1-10.1-12.7c0-3.8,1.4-6.9,4.3-9.4c2.8-2.5,6.4-3.8,10.6-3.8
		C239.1,205.9,243.6,208.8,246.8,214.4z"/>
	<path class="st0" d="M265.5,251.1l-14-25.7h8.3l9.5,18.1l8.9-18.1h8.1l-24.8,48.7h-8.2L265.5,251.1z"/>
	<path class="st0" d="M309.3,230.8l-5.9,3.2c-0.9-1.9-2.1-2.9-3.5-2.9c-0.7,0-1.2,0.2-1.7,0.7c-0.5,0.4-0.7,1-0.7,1.7
		c0,1.2,1.4,2.4,4.2,3.6c3.8,1.7,6.4,3.2,7.7,4.6c1.3,1.4,2,3.3,2,5.7c0,3-1.1,5.6-3.3,7.6c-2.2,1.9-4.8,2.9-7.8,2.9
		c-5.2,0-8.9-2.6-11.1-7.7l6.1-2.9c0.9,1.5,1.5,2.5,2,2.9c0.9,0.8,1.9,1.2,3.1,1.2c2.4,0,3.6-1.1,3.6-3.4c0-1.3-0.9-2.5-2.8-3.6
		c-0.7-0.4-1.4-0.7-2.2-1.1c-0.7-0.3-1.5-0.7-2.2-1.1c-2.1-1-3.6-2.1-4.4-3.1c-1.1-1.3-1.6-3-1.6-5.1c0-2.7,0.9-5,2.8-6.8
		c1.9-1.8,4.2-2.7,6.9-2.7C304.4,224.5,307.4,226.6,309.3,230.8z"/>
	<path class="st0" d="M325.2,232.2V257H318v-24.8H315v-6.8h3.1v-11.6h7.2v11.6h5.6v6.8H325.2z"/>
	<path class="st0" d="M364.1,242.9h-22.3c0.2,2.6,1,4.7,2.5,6.2c1.5,1.5,3.4,2.3,5.7,2.3c1.8,0,3.3-0.4,4.4-1.3
		c1.2-0.9,2.5-2.5,3.9-4.8l6.1,3.4c-0.9,1.6-1.9,3-3,4.2c-1,1.2-2.2,2.1-3.4,2.9c-1.2,0.7-2.5,1.3-3.9,1.6s-2.9,0.5-4.5,0.5
		c-4.6,0-8.4-1.5-11.2-4.5c-2.8-3-4.2-7.1-4.2-12.1c0-5,1.4-9,4.1-12.1c2.7-3,6.4-4.6,10.9-4.6c4.6,0,8.2,1.5,10.9,4.4
		c2.6,2.9,4,7,4,12.2L364.1,242.9z M356.7,236.9c-1-3.9-3.4-5.8-7.3-5.8c-0.9,0-1.7,0.1-2.5,0.4c-0.8,0.3-1.5,0.7-2.1,1.2
		c-0.6,0.5-1.2,1.1-1.6,1.8c-0.4,0.7-0.8,1.5-1,2.4H356.7z"/>
	<path class="st0" d="M371.9,225.4h7.2v2.9c1.4-1.5,2.6-2.5,3.5-3c1-0.5,2.4-0.8,3.9-0.8c3.5,0,6.3,1.6,8.3,4.7
		c2.3-3.1,5.3-4.7,9.2-4.7c7,0,10.5,4.3,10.5,12.9V257h-7.2v-17.5c0-3-0.4-5.2-1.1-6.4c-0.7-1.3-2-1.9-3.7-1.9c-2,0-3.4,0.8-4.3,2.3
		c-0.9,1.5-1.4,3.9-1.4,7.3V257h-7.2v-17.4c0-5.6-1.6-8.4-4.8-8.4c-2,0-3.5,0.8-4.4,2.3c-0.9,1.5-1.4,4-1.4,7.3V257h-7.2V225.4z"/>
</g>
<path class="st1" d="M22,67.9l-7.2,145.6c5.6,0.3,10.3-4.1,10.6-9.7l6.3-128.6l-2-2.8C27.8,69.8,24.9,68.3,22,67.9"/>
<path class="st1" d="M38.2,190.8l4.9-100.2c-0.7-0.8-1.4-1.6-2-2.5L33.7,78l-6,122.5C33.2,200.8,38,196.5,38.2,190.8"/>
<path class="st1" d="M51.1,177.8L55,98.7c-3.6-1.3-6.9-3.3-9.8-6l-4.7,94.8C46.1,187.8,50.8,183.4,51.1,177.8"/>
<path class="st1" d="M12.6,216.8l7.3-149c-2,0.1-4,0.8-5.8,2c1.4-2.1,3.2-4,5.5-5.5c5.1-3.4,11.3-4,17-1.8l19.2,7.5
	c4.3,1.7,8.9,2.5,13.4,2.5c-1.9,2.7-3.3,4.3-3.3,4.3l-1.7,2l2.5-0.5c4.6-0.9,9.1-2.3,13.4-4.1l-1.9,7l1.8-0.9c4.1-1.9,8-4.3,11.6-7
	l6.4,7.6l6.4-7.6c3.6,2.7,7.5,5.1,11.6,7l1.8,0.9l-1.9-7c4.3,1.8,8.8,3.2,13.4,4.1l3.2,0.6l-2.4-2.2c0,0-1.5-1.4-3.4-4.3
	c4.6,0,9.2-0.8,13.7-2.5l19.2-7.5c5.7-2.2,11.9-1.6,17,1.8c2.2,1.5,4.1,3.3,5.5,5.5c-1.8-1.2-3.8-1.9-5.8-2l7.3,149
	c0.3,5.6,5,10,10.6,9.7l-7.2-147l0-0.8c0-0.5-0.1-1-0.2-1.4c-0.8-5.9-4.1-11.1-9.1-14.4c-5.6-3.7-12.4-4.4-18.6-2l-19.2,7.5
	c-4.6,1.8-9.4,2.6-14.2,2.4c-3.8-6.3-8.6-17.5-8.3-34.2c0.7-16.7-2.3-23.4-5-26.1C109.1,7.2,99.1,4.4,92.4,4
	c-1.5-0.1-2.6,0.3-3.3,1.1c-0.4,0.4-0.6,0.9-0.7,1.4c-4.9-1.2-12.5-2.4-16.2,0c-2.4,1.6-3.2,6.9-3,9.4c0.1,1.3,0.5,2,1.2,2.3
	c0.3,0.1,0.9,0.2,1.5-0.3c1.5-1.2,3-1.7,4.6-1.5c2.2,0.3,4.4,2.2,6.7,5.4c2.3,3.4,2.5,13.8-1.5,27.3c-2.3,7.9-7.4,16.1-11.1,21.5
	c-4.8,0.2-9.6-0.6-14.1-2.4l-19.2-7.5c-6.2-2.4-13-1.7-18.6,2c-5,3.3-8.3,8.5-9.1,14.4c-0.1,0.5-0.1,0.9-0.2,1.4l0,0.8l-1.9,39.3
	l-4.6,94.3L2,226.5C7.6,226.8,12.3,222.5,12.6,216.8 M98.5,12.3c0,1.3-1,2.3-2.2,2.3c-1.2,0-2.2-1-2.2-2.3c0-1.3,1-2.3,2.2-2.3
	C97.6,10,98.5,11,98.5,12.3 M83.4,49.8c3-10.1,3.9-19.7,2.6-25.4c0.2-0.2,0.4-0.4,0.6-0.6c1-0.9,5.3,0.1,5.3,0.1
	c-5.7-9.9-12.3-12.3-15.1-12.1c-2.8,0.1-4.9,3.2-5.7,4.6c-0.1-0.7-0.2-2,0.2-3.7c0-0.2,0.1-0.4,0.1-0.6c0,0,0,0,0,0
	c0.2-0.6,1-0.9,1.5-1.2c2-1.1,4.1-1,6.3-0.7c3,0.4,6,1.5,8.8,2.6c2.4,0.9,4.7,2,6.7,3.5c1.5,1.1,3.5,2.6,4.7,0.4
	c1.8-3.2,5-6.1,8.9-4.8c1,0.3,2,0.9,2.8,1.6c0.2,0.2,1.7,1.5,2.1,2c0,0,0,0.1,0,0.1c0,0,0,0.1,0,0.1c0,0,0,0,0,0
	c1.4,3.6,2.7,9.9,2.2,21c-0.4,22.2,7.7,34.8,11.6,39.6c-4.1-1-8.1-2.4-12-4.1l0,0c0,0,0,0-0.1,0c0,0-0.1-0.1-0.1-0.1
	c-0.2-0.1-0.4-0.3-0.7-0.6c-0.3-0.3-0.7-0.7-1.1-1.2c-0.4-0.5-0.8-1.1-1.2-1.8c-0.4-0.7-0.8-1.5-1.1-2.3c-0.4-0.8-0.7-1.8-1.1-2.7
	c-0.3-1-0.6-2-0.9-3c-0.2-1.1-0.5-2.1-0.7-3.2c-0.2-1.1-0.4-2.2-0.6-3.3c-0.2-1.1-0.3-2.1-0.4-3.2c-0.2-1-0.3-2-0.4-3
	c-0.1-1-0.2-1.9-0.3-2.7c-0.2-1.7-0.3-3.1-0.5-4c-0.1-1-0.2-1.5-0.2-1.5s-0.1,0.6-0.1,1.5c0,0.5-0.1,1.1-0.1,1.8
	c0,0.7-0.1,1.5-0.1,2.3c0,0.8,0,1.8,0.1,2.7c0,1,0.1,2,0.2,3c0.1,1.1,0.2,2.1,0.3,3.2c0.2,1.1,0.3,2.2,0.5,3.3
	c0.2,1.1,0.5,2.2,0.7,3.3c0.3,1.1,0.6,2.2,0.9,3.2c0.4,1,0.7,2,1.1,2.9c0.4,0.9,0.8,1.8,1.2,2.5c0.4,0.8,0.8,1.5,1.3,2
	c0.4,0.6,0.9,1.1,1.2,1.4c0.4,0.4,0.7,0.6,1,0.8l1.3,4.6c-3.5-1.8-6.9-3.9-10-6.4l0,0c0,0-0.1,0,0,0c0,0,0,0-0.1-0.1
	c0-0.1-0.1-0.2-0.2-0.3c-0.1-0.1-0.2-0.3-0.2-0.5c-0.2-0.4-0.3-0.9-0.5-1.5c-0.2-0.6-0.4-1.3-0.5-2c-0.2-0.7-0.3-1.6-0.5-2.4
	c-0.1-0.9-0.3-1.8-0.4-2.8c-0.3-1.9-0.5-4-0.7-6.1c-0.1-1-0.2-2.1-0.3-3.1c-0.1-1-0.1-2-0.2-3c-0.1-1-0.1-1.9-0.2-2.8
	c-0.1-0.9-0.2-1.7-0.2-2.5c-0.1-1.6-0.3-2.9-0.4-3.8c-0.1-0.9-0.2-1.4-0.2-1.4s-0.1,0.5-0.1,1.4c-0.1,0.9-0.2,2.2-0.2,3.8
	c-0.1,3.2,0,7.4,0.4,11.6c0.2,2.1,0.4,4.2,0.6,6.2c0.1,1,0.3,1.9,0.4,2.8c0.2,0.9,0.3,1.8,0.5,2.5c0.2,0.8,0.4,1.5,0.5,2.1
	c0.2,0.6,0.4,1.2,0.6,1.7c0.1,0.2,0.2,0.4,0.3,0.6c0,0.1,0.1,0.1,0.1,0.1l-5.2,6.1l-5.2-6.1c0-0.1,0.1-0.1,0.1-0.2
	c0.1-0.2,0.2-0.4,0.3-0.6c0.2-0.5,0.4-1,0.6-1.7c0.2-0.6,0.4-1.4,0.5-2.1c0.2-0.8,0.3-1.6,0.5-2.5c0.1-0.9,0.3-1.9,0.4-2.8
	c0.3-2,0.5-4.1,0.6-6.2c0.3-4.2,0.4-8.4,0.4-11.6c-0.1-1.6-0.1-2.9-0.2-3.8C96,39.8,96,39.2,96,39.2s-0.1,0.5-0.2,1.4
	c-0.1,0.9-0.3,2.2-0.4,3.8c-0.1,0.8-0.1,1.6-0.2,2.5c-0.1,0.9-0.1,1.8-0.2,2.8c-0.1,1-0.2,2-0.2,3c-0.1,1-0.2,2.1-0.3,3.1
	C94.2,58,94,60.1,93.7,62c-0.1,1-0.3,1.9-0.4,2.8c-0.2,0.9-0.3,1.7-0.5,2.4c-0.2,0.7-0.4,1.4-0.5,2c-0.2,0.6-0.4,1.1-0.5,1.5
	c-0.1,0.2-0.2,0.4-0.2,0.5c-0.1,0.1-0.1,0.2-0.2,0.3c-0.1,0.1-0.1,0.1-0.1,0.1c0,0,0,0,0,0C88,74,84.6,76.2,81.1,78l1.2-4.5
	c0,0,0,0,0.1,0c0.3-0.2,0.6-0.4,1-0.8c0.4-0.4,0.8-0.8,1.2-1.4c0.5-0.6,0.9-1.3,1.3-2c0.4-0.8,0.8-1.6,1.2-2.5
	c0.4-0.9,0.7-1.9,1.1-2.9c0.3-1,0.6-2.1,0.9-3.2c0.2-1.1,0.5-2.2,0.7-3.3c0.2-1.1,0.3-2.2,0.5-3.3c0.1-1.1,0.2-2.2,0.3-3.2
	c0.1-1.1,0.2-2.1,0.2-3c0-1,0.1-1.9,0.1-2.7c0-0.8,0-1.6-0.1-2.3c0-0.7,0-1.3-0.1-1.8c-0.1-1-0.1-1.5-0.1-1.5s-0.1,0.6-0.2,1.5
	c-0.1,1-0.3,2.4-0.5,4c-0.1,0.8-0.2,1.7-0.3,2.7c-0.1,1-0.2,2-0.4,3c-0.1,1-0.3,2.1-0.4,3.2c-0.2,1.1-0.4,2.2-0.6,3.3
	c-0.2,1.1-0.5,2.2-0.7,3.2c-0.3,1-0.6,2.1-0.9,3c-0.4,1-0.6,1.9-1.1,2.7c-0.4,0.9-0.8,1.6-1.1,2.3c-0.4,0.7-0.8,1.3-1.2,1.8
	c-0.4,0.5-0.8,0.9-1.1,1.2c-0.3,0.3-0.6,0.5-0.7,0.6c-0.1,0-0.1,0.1-0.1,0.1c-0.1,0-0.1,0-0.1,0l0,0c-4,1.8-8.1,3.2-12.3,4.2
	C72.3,71.7,80.2,60.7,83.4,49.8"/>
<path class="st1" d="M181.3,213.6l-7.1-145.6c-3,0.4-5.8,1.9-7.7,4.6l-2,2.8l6.3,128.6C171,209.5,175.8,213.8,181.3,213.6"/>
<path class="st1" d="M168.5,200.5l-6-122.5L155,88.2c-0.6,0.9-1.3,1.7-2,2.5l4.9,100.2C158.2,196.5,162.9,200.8,168.5,200.5"/>
<path class="st1" d="M141.2,98.7l3.9,79.1c0.3,5.6,5,10,10.6,9.7L151,92.7C148.1,95.3,144.8,97.3,141.2,98.7"/>
<path class="st1" d="M98.1,175.9c33.2-17.7,35.5-56.8,35.1-71.6c-0.8,0.1-1.5,0.1-2.3,0.1c-6.7,0-13.2-2-18.8-5.8l-14-9.4l-14,9.4
	c-5.6,3.8-12.1,5.8-18.8,5.8c-0.8,0-1.5,0-2.3-0.1c-0.2,6.5,0.2,18.1,3.7,30.5C72,153.9,82.6,167.7,98.1,175.9 M64.8,106.3
	c0.2,0,0.3,0,0.5,0c7.1,0,14-2.1,19.9-6.1l13-8.7l13,8.8c5.9,4,12.8,6.1,19.8,6.1c0.2,0,0.3,0,0.5,0c0,7.2-0.6,19.6-4.9,32.2
	c-5.4,16-15,27.9-28.4,35.4c-14.6-8-24.5-21.3-29.7-39.5C65.3,123.2,64.7,112.6,64.8,106.3"/>
<path class="st1" d="M186,240.4c0,0-0.1,0-0.1,0c-0.8,0-1.9-0.1-2.4-0.2c-2.9-2.8-7.2-4.5-11.5-4.5c0.6-0.7,1.2-1.5,1.7-2.4
	c0.9-1.2,1.1-2.8,0.5-4.3c-0.9-2.4-3.5-3.6-5.9-2.8c-0.2,0.1-0.3,0.2-0.5,0.2c-0.1-0.1-0.1-0.1-0.2-0.2c-2.2-1.4-4.8-1.9-7.4-1.3
	c-2.2,0.5-4.2,1.8-5.5,3.7c-1.5-0.9-3.2-1.3-4.9-1.3l-23.1-75.1c1.7-3.3,3.2-6.6,4.4-9.9l1.1,22.3c0.3,5.6,5,10,10.6,9.7l-3.7-75.1
	c-0.8,0.2-1.5,0.4-2.3,0.6c0,0,0,0,0,0c-2,0.4-4,0.6-6,0.6c-5.7,0-11.5-1.7-16.7-5.1L98.1,84.4L81.9,95.3
	c-5.1,3.5-10.9,5.1-16.7,5.1c-2,0-4-0.2-6-0.6c0,0,0,0,0,0c-0.8-0.2-1.5-0.3-2.3-0.6l-3.7,75.1c5.6,0.3,10.3-4.1,10.6-9.7l1.1-22.3
	c1.2,3.3,2.7,6.7,4.4,9.9l-23.1,75.1c-1.7,0-3.4,0.4-4.9,1.3c-1.3-1.9-3.3-3.2-5.5-3.7c-2.6-0.6-5.2-0.1-7.4,1.3c0,0-0.1,0-0.1,0.1
	c0,0-0.1,0.1-0.1,0.1c-0.2-0.1-0.3-0.2-0.5-0.2c-2.4-0.9-5,0.3-5.9,2.8c-0.5,1.4-0.3,3,0.5,4.3c0.4,0.9,1,1.7,1.7,2.4
	c-4.3,0-8.6,1.7-11.5,4.5c-0.4,0.1-1.5,0.3-2.4,0.2c0,0-0.1,0-0.1,0c-2,0.2-3.6,1.5-4.2,3.4c-0.6,1.8,0,3.8,1.5,5.2
	c0,0,0.1,0,0.1,0.1c0.7,0.5,1.6,1.2,1.9,1.6c1,4.6,4.9,9,9.7,11l-0.9,3.7c-0.1,0.5,0.2,1,0.7,1.1c25.9,6.8,52.5,10.2,79.1,10.2
	c26.6,0,53.2-3.4,79.1-10.2c0.5-0.1,0.8-0.6,0.7-1.1l-0.9-3.7c4.8-2,8.7-6.5,9.7-11c0.3-0.4,1.2-1.1,1.9-1.6c0,0,0.1-0.1,0.1-0.1
	c1.5-1.3,2.1-3.3,1.6-5.2C189.6,242,188,240.7,186,240.4 M168.9,228c0.3-0.1,0.6-0.2,0.9-0.2c1.1,0,2.2,0.7,2.6,1.8
	c0.3,0.9,0.2,1.8-0.4,2.6l-0.1,0.1c-0.7,1.6-2.2,2.8-3.2,3.5l-1.6-4.3C166.8,230.2,167.5,228.6,168.9,228 M154.5,230.8
	c0.2,0.2,0.5,0.2,0.7,0.2c0.3-0.1,0.5-0.2,0.6-0.4c1.1-1.8,2.8-3.1,4.9-3.6c2-0.5,4-0.2,5.7,0.9c-0.9,1.2-1.3,2.8-0.8,4.3
	c-0.3,0.1-0.6,0.2-1,0.2c-1.5,0.4-3,0.8-4.6,1.1c-0.3,0.1-0.5,0.1-0.8,0.2c-5.7,1.3-11.3,2.4-17.1,3.3c-0.2-1.4-1.1-2.7-2.5-3.4
	c-1.1-0.6-2.3-0.6-3.5-0.2c-1.2,0.4-2.1,1.2-2.6,2.3c-0.4,0.8-0.5,1.7-0.4,2.5c-7.4,0.9-14.8,1.6-22.3,1.9c0.2-1,0.2-2.1-0.3-3
	c-0.4-0.9-1.1-1.7-2-2.1c1.1-0.6,2.2-1,3.5-1.1c2.1-0.1,4.1,0.7,5.6,2.1c0,0,0,0,0.1,0c0.1,0.1,0.2,0.1,0.3,0.2c0.4,0.1,0.8,0,1-0.3
	c1.3-1.7,3.2-2.7,5.3-2.9c2.1-0.2,4.1,0.5,5.7,1.9c0.1,0.1,0.2,0.2,0.3,0.2c0.4,0.1,0.8,0,1-0.3c1.2-1.7,3.1-2.9,5.1-3.2
	c2.1-0.3,4.2,0.3,5.8,1.6c0.2,0.2,0.5,0.2,0.7,0.2c0.3,0,0.5-0.2,0.6-0.4c1.2-1.8,2.9-3,5-3.4C150.7,229.1,152.8,229.5,154.5,230.8
	 M169.9,258.8l0.8,3.5c-47.6,11.6-97.8,11.6-145.4,0l0.8-3.5c0.1-0.2,0-0.5-0.1-0.7c-0.1-0.2-0.3-0.4-0.6-0.4
	c-0.9-0.2-1.8-0.4-2.7-0.7c-3.5-0.9-7-4.4-7.6-7.6c-0.2-1.2-1.3-2.4-2.4-3.4c1.4-0.2,3-0.6,3.8-1.5c2.2-2.4,6.7-3.7,10-2.8
	c0.8,0.2,1.7,0.4,2.5,0.6c0.2,0.1,0.5,0,0.7-0.1c0.2-0.1,0.4-0.3,0.4-0.6l0.8-3.5c8.2,2,16.4,3.6,24.8,4.9l1.6,3.2l0.9-1
	c0,0,0.6-0.7,1.4-1.6c9.2,1.2,18.4,2,27.6,2.4l0.4,1.1l0.9-0.5c0,0,0.4-0.2,0.9-0.6c5.6,0.2,11.2,0.2,16.8,0
	c0.5,0.3,0.9,0.5,0.9,0.6l0.9,0.5l0.4-1.1c9.2-0.3,18.5-1.1,27.6-2.4c0.8,1,1.3,1.6,1.4,1.6l0.9,1l1.6-3.2
	c8.3-1.2,16.6-2.9,24.8-4.8l0.8,3.5c0.1,0.5,0.6,0.8,1.1,0.7c0.8-0.2,1.7-0.4,2.5-0.6c3.3-0.8,7.8,0.4,10,2.8
	c0.8,0.9,2.4,1.3,3.8,1.5c-1.1,1-2.2,2.2-2.4,3.4c-0.6,3.2-4.1,6.7-7.6,7.6c-0.9,0.2-1.8,0.5-2.7,0.7
	C170.1,257.8,169.8,258.3,169.9,258.8 M80.4,188.3l8.1-11.1l-4,22.1l-2.2,3L80.4,188.3z M68.1,202.1L66.2,188l10.4-14.2l1.9,14
	L68.1,202.1z M56.2,201.6l8.4-11.4l1.9,14.1l-10.5,14.3l-1.5-11.4L56.2,201.6z M68.4,204.7l10.4-14.3l1.9,14l-10.4,14.3L68.4,204.7z
	 M83.7,203.5l-0.7,3.9l-0.3-2.5L83.7,203.5z M64.3,187.5l-6.4,8.7l5.2-17L64.3,187.5z M80,185.7l-1.9-14l2.7-3.7
	c2.2,2.3,4.7,4.4,7.4,6.4L80,185.7z M77.8,169.1l-0.7-5.2c0.8,1,1.6,1.9,2.5,2.8L77.8,169.1z M76.2,171.2l-10.4,14.2L64.4,175
	l2.2-7.3l6.6-9.1c0.5,0.8,1.6,2.4,1.6,2.4L76.2,171.2z M68.3,162.4l2.4-7.8c0.5,0.8,1,1.6,1.5,2.4L68.3,162.4z M53.2,211.4l1.3,9.4
	l-5.3,7.3c-0.3-0.1-0.7-0.2-1-0.3L53.2,211.4z M54.8,223.3l0.9,6.7c-0.8,0.3-1.5,0.6-2.2,1.1c-0.7-0.9-1.6-1.7-2.7-2.3L54.8,223.3z
	 M57.5,229.6l-1.1-8.4l10.5-14.3l1.9,14l-6.8,9.3c-0.6-0.2-1.3-0.4-2-0.5C59.2,229.5,58.3,229.5,57.5,229.6 M69.1,223.5l1,7.6
	c-1.6,0.2-3.1,0.7-4.4,1.7c-0.6-0.7-1.3-1.3-2.1-1.8L69.1,223.5z M72.1,231.1c0,0-0.1,0-0.1,0l-1.3-9.7l10.4-14.3l0.8,6.2l-0.7,3.9
	l-1.6,8.7l0,0l-4.4,6.1C74.2,231.5,73.2,231.2,72.1,231.1 M78.8,230.1l-0.7,3.9c0,0,0,0-0.1,0.1c-0.4-0.4-0.8-0.8-1.3-1.1
	L78.8,230.1z M81.9,223.4L85,229l6-7l2.4-44.3c0.6,0.3,1.1,0.7,1.7,1l-2.3,44.9l5.3,7.6l5.3-7.6l-2.3-44.9c0.6-0.3,1.2-0.7,1.8-1
	l2.4,44.3l6,7l3.1-5.6l1.7,9.2c-1.3-0.5-2.7-0.8-4.1-0.7c-2.2,0.1-4.2,1-5.8,2.4c-0.6,0-1.2,0.2-1.7,0.4c-1.1,0.5-2,1.4-2.4,2.6
	c-0.4,1-0.4,2-0.1,3c-2.6,0-5.2,0-7.8,0c0.3-1,0.3-2-0.1-3c-0.7-1.8-2.3-3-4.1-3c-1.6-1.4-3.6-2.3-5.8-2.4c-1.4-0.1-2.8,0.2-4.1,0.7
	L81.9,223.4z M112.5,203.5l1.1,1.4l-0.3,2.5L112.5,203.5z M117.3,190.5l10.4,14.3l-1.9,14l-10.4-14.3L117.3,190.5z M129.7,204.2
	l1.9-14.1l8.4,11.4l1.7,5.6l-1.5,11.4L129.7,204.2z M131.9,187.5l1.1-8.3l5.2,17L131.9,187.5z M128.1,202.1l-10.4-14.3l1.9-14
	L130,188L128.1,202.1z M113.9,202.3l-2.2-3l-4-22.1l8.1,11.1L113.9,202.3z M118.2,234C118.1,233.9,118.1,233.9,118.2,234l-0.8-3.9
	l2,2.8C119,233.2,118.5,233.5,118.2,234 M121,231.9l-4.4-6v0l-1.8-9.4l-0.6-3.2l0.8-6.2l10.4,14.3l-1.3,9.7c0,0-0.1,0-0.1,0
	C123,231.2,122,231.5,121,231.9 M127.1,223.5l5.5,7.5c-0.8,0.5-1.5,1.1-2.1,1.8c-1.3-0.9-2.8-1.5-4.4-1.7L127.1,223.5z M134.2,230.2
	l-6.8-9.3l1.9-14l10.5,14.3l-1.1,8.4c-0.8-0.1-1.6-0.1-2.4,0C135.5,229.7,134.8,229.9,134.2,230.2 M141.3,223.3l4,5.4
	c-1,0.6-1.9,1.4-2.7,2.3c-0.7-0.5-1.4-0.8-2.2-1.1L141.3,223.3z M147,228l-5.3-7.3l1.3-9.4l5,16.4C147.6,227.8,147.3,227.9,147,228
	 M125.5,154.6l2.4,7.8l-3.9-5.3C124.5,156.2,125,155.4,125.5,154.6 M122.9,158.7l6.6,9.1l2.2,7.3l-1.4,10.4l-10.4-14.2l1.4-10.1
	C121.3,161.1,122.4,159.5,122.9,158.7 M118.4,169.1l-1.8-2.4c0.9-0.9,1.7-1.9,2.5-2.8L118.4,169.1z M115.3,168l2.7,3.7l-1.9,14
	l-8.2-11.3C110.6,172.4,113.1,170.3,115.3,168 M93.3,242.2c3.2,0.1,6.4,0,9.6,0c0.4,0.7,0.9,1.4,1.5,1.9c-4.2,0.1-8.3,0.1-12.5,0
	C92.4,243.5,92.9,242.9,93.3,242.2 M135.2,239c-0.4-0.8-0.5-1.8-0.1-2.6c0.3-0.7,0.9-1.2,1.6-1.4c0.7-0.2,1.4-0.2,2.1,0.1
	c1.4,0.7,1.9,2.4,1.2,3.7l-1.9,3.9C137.5,241.9,136.4,240.6,135.2,239 M135,241.7c-8.5,1.1-17,1.9-25.6,2.2l0.7-2
	c3.1-0.1,6.2-0.3,9.3-0.6c4.7-0.4,9.5-0.8,14.2-1.4v0l0.1,0.1C134.2,240.7,134.6,241.2,135,241.7 M108.9,239.9l-1.6,4.3
	c-0.9-0.7-2.4-1.9-3.2-3.5l-0.1-0.1c-0.5-0.8-0.7-1.7-0.4-2.6c0.3-0.7,0.8-1.3,1.4-1.6c0.7-0.3,1.4-0.3,2.1-0.1
	c0.7,0.3,1.2,0.8,1.5,1.4C109.1,238.5,109.2,239.2,108.9,239.9 M88.9,236.4c0.3-0.1,0.6-0.2,0.9-0.2c1.1,0,2.2,0.7,2.6,1.8
	c0.3,0.9,0.2,1.8-0.4,2.6l-0.1,0.1c-0.7,1.6-2.2,2.8-3.2,3.5l-1.6-4.3c-0.3-0.7-0.2-1.5,0.1-2.1C87.6,237.1,88.2,236.6,88.9,236.4
	 M62.5,240.1L62.5,240.1c7.9,0.9,15.7,1.6,23.6,1.9l0.7,2c-8.5-0.3-17.1-1.1-25.6-2.2C61.6,241.2,62,240.7,62.5,240.1 M61,239
	c-1.2,1.6-2.3,2.9-3,3.8l-1.9-3.9c-0.7-1.4-0.1-3.1,1.2-3.7c0.4-0.2,0.8-0.3,1.2-0.3c0.3,0,0.6,0,0.9,0.1c0.7,0.2,1.3,0.7,1.6,1.4
	C61.4,237.2,61.4,238.2,61,239 M64.7,135.4c-4-14.2-4-27.5-3.7-33.4c1.4,0.2,2.9,0.3,4.3,0.3c6.3,0,12.4-1.9,17.7-5.5l15.1-10.2
	l15.1,10.2c5.3,3.6,11.4,5.5,17.7,5.5c1.4,0,2.9-0.1,4.3-0.3c0.3,5.9,0.3,19.2-3.7,33.4c-5.6,20-16.9,34.4-33.4,42.8
	C81.6,169.8,70.3,155.4,64.7,135.4 M35.5,226.9c2.1,0.5,3.8,1.8,4.9,3.7c0.1,0.1,0.1,0.2,0.2,0.2c0.3,0.3,0.8,0.3,1.1,0
	c1.7-1.3,3.8-1.7,5.9-1.3c2.1,0.4,3.9,1.6,5,3.4c0.1,0.2,0.4,0.4,0.6,0.4c0.3,0,0.5,0,0.7-0.2c1.7-1.3,3.7-1.9,5.8-1.6
	c2.1,0.3,3.9,1.4,5.1,3.2c0.2,0.2,0.4,0.4,0.6,0.4c0.3,0,0.5-0.1,0.7-0.2c1.6-1.4,3.6-2.1,5.7-1.9c2.1,0.2,4,1.2,5.3,2.9
	c0.2,0.2,0.4,0.3,0.7,0.4c0.3,0,0.5-0.1,0.7-0.3c1.5-1.5,3.5-2.2,5.6-2.1c1.3,0.1,2.4,0.4,3.5,1.1c-0.9,0.5-1.6,1.2-2,2.1
	c-0.4,1-0.5,2-0.3,3c-7.5-0.3-14.9-1-22.3-1.9c0.1-0.9-0.1-1.7-0.4-2.6c-0.5-1.1-1.5-1.9-2.6-2.3c-1.2-0.4-2.4-0.3-3.5,0.2
	c-1.4,0.7-2.2,2-2.5,3.4c-6.1-1-12.2-2.2-18.3-3.5c-1.7-0.4-3.4-0.8-5.1-1.2c0.4-1.1,0.3-2.3-0.2-3.4c-0.2-0.4-0.4-0.7-0.6-1
	C31.6,226.7,33.5,226.4,35.5,226.9 M24.1,232.3c-0.5-0.8-0.7-1.7-0.4-2.6c0.5-1.4,2.1-2.2,3.5-1.7c0.7,0.3,1.2,0.8,1.5,1.4
	c0.3,0.7,0.3,1.4,0.1,2.1l-1.6,4.3c-0.9-0.7-2.4-1.9-3.2-3.5L24.1,232.3z M187.4,247.6c-0.9,0.6-2,1.5-2.4,2.2
	c-0.1,0.1-0.1,0.2-0.1,0.3c-0.9,4.2-4.8,8.5-9.4,10.2c-0.4,0.2-0.7,0.6-0.6,1.1l0.9,3.6c-50.9,13.2-104.6,13.2-155.5,0l0.9-3.6
	c0.1-0.5-0.1-0.9-0.6-1.1c-4.6-1.7-8.5-6-9.4-10.2c0-0.1-0.1-0.2-0.1-0.3c-0.4-0.6-1.6-1.6-2.4-2.2c-0.9-0.9-1.3-2-0.9-3.2
	c0.3-1.1,1.3-1.9,2.6-2.1c1,0,2.5-0.1,3.2-0.4c0.1,0,0.2-0.1,0.3-0.2c3-3,8.2-4.6,12.6-4c0,0,0.1,0,0.1,0c0.4,0.3,0.7,0.5,0.8,0.5
	l0.9,0.5l1.8-4.8c1.8,0.5,3.6,0.9,5.4,1.3c0,0,0,0,0.1,0c6.2,1.4,12.4,2.6,18.6,3.6c0.1,0.3,0.2,0.6,0.3,1l0.6,1.1
	c-8.1-1.3-16.2-2.9-24.2-4.8c-0.2-0.1-0.5,0-0.7,0.1c-0.2,0.1-0.4,0.3-0.4,0.6l-0.8,3.5c-0.5-0.1-1.1-0.3-1.6-0.4
	c-3.9-1-9.1,0.5-11.8,3.3c-0.9,1-3.9,1.1-4.9,1.1c-0.3,0-0.7,0.1-0.8,0.4c-0.3,0.4-0.1,1,0.3,1.3c2,1.4,3.4,2.8,3.6,3.7
	c0.8,3.9,4.8,8,8.9,9.1c0.6,0.2,1.2,0.3,1.8,0.5l-0.8,3.5c-0.1,0.5,0.2,1,0.7,1.1c24.2,6,49.1,9,74,9c24.9,0,49.8-3,74-9
	c0.5-0.1,0.8-0.6,0.7-1.1l-0.8-3.5c0.6-0.2,1.2-0.3,1.8-0.5c4.2-1.1,8.2-5.1,8.9-9.1c0.2-0.9,1.6-2.4,3.6-3.7
	c0.4-0.3,0.6-0.9,0.3-1.3c-0.2-0.3-0.5-0.5-0.8-0.4c-1,0-4.1-0.2-4.9-1.1c0,0,0,0,0,0c-2.7-2.9-7.9-4.3-11.8-3.3
	c-0.5,0.1-1.1,0.3-1.6,0.4l-0.8-3.5c-0.1-0.5-0.6-0.8-1.1-0.7c-8,2-16.1,3.6-24.2,4.8l0.5-1.1c0.2-0.3,0.3-0.6,0.3-1
	c3.6-0.6,7.2-1.2,10.7-1.9c4.5-0.9,8.9-1.9,13.4-3l1.8,4.8l0.9-0.5c0,0,0.3-0.2,0.8-0.5c0,0,0.1,0,0.1,0c4.5-0.7,9.6,1,12.6,4
	c0.1,0.1,0.2,0.2,0.3,0.2c0.7,0.3,2.3,0.4,3.2,0.4c1.3,0.2,2.2,1,2.6,2.1C188.8,245.5,188.4,246.7,187.4,247.6"/>
<path class="st1" d="M71.3,254.2c-0.3,2.1-1,3.7-2.4,4.8c-0.4,0.4-1.1,0.8-2.1,1.4c-0.9,0.6-1.6,1-2.1,1.3c-0.1,0.1-0.3,0.3-0.8,0.8
	c-1.1-0.7-2.3-1.4-3.4-2.2c-0.2,1-0.3,2-0.5,3c-0.1,0.4,0.1,0.8,0.4,1.2c0.3,0.3,0.6,0.5,0.8,0.6c0,0,0,0,0.1,0c0,0.3,0,0.5,0,0.6
	c-1.5-0.3-3.4-0.3-5.6,0c-0.1-0.1-0.1-0.3-0.2-0.4c0.6-0.3,1-0.5,1.3-0.8c0.3-0.3,0.5-0.8,0.6-1.3c0.4-2.2,0.7-3.6,0.8-4.1
	c-0.5-0.3-1.3-0.7-2.3-1.4c0.3-0.3,0.9-0.8,2-1.7c0.3,0.2,0.5,0.5,0.8,0.7c0-0.2,0.2-1.4,0.6-3.5c0.2-0.9,0.2-1.5,0.2-1.9
	c0-0.8-0.3-1.4-0.8-1.7c0,0,0-0.2,0.1-0.4c0.3,0,0.6,0,1,0c1-0.1,2.3-0.4,4-1c0.1,0,0.5-0.2,1.3-0.7c0.6-0.3,1.1-0.5,1.3-0.5
	c1.4,0.4,2.5,1.4,3.5,2.9C71.1,251.4,71.5,252.8,71.3,254.2 M69.4,256c0.2-1.5-0.2-3-1.2-4.5c-1-1.5-2.2-2.4-3.7-2.6
	c-0.7-0.1-1.2,0-1.5,0.3c-0.3,0.3-0.5,0.8-0.6,1.5c0,0.1-0.1,0.3-0.1,0.7c-0.1,0.4-0.1,0.6-0.1,0.7c0,0.1-0.1,0.5-0.2,1.1
	c-0.1,0.6-0.2,1.1-0.3,1.6c-0.2,0.9-0.3,1.8-0.5,2.8c0,0.1,0,0.2,0,0.3c0.2,0.2,0.8,0.6,1.9,1.2c1.1,0.6,1.8,0.9,2.1,1
	c1,0.2,2-0.3,2.9-1.3C68.9,257.9,69.3,257,69.4,256"/>
<path class="st1" d="M80.7,266.5c0,0.1-0.4,0.4-1,0.8c-0.7,0.4-1.1,0.6-1.3,0.5c-0.5,0-0.9-0.3-1-0.9c-0.1-0.4-0.2-0.9-0.1-1.4
	c0,0,0,0-0.1,0c-0.2,0.1-0.9,0.4-1.9,0.9c-1,0.6-1.6,0.8-1.7,0.8c-0.7-0.1-1.4-0.6-2-1.7c-0.6-0.9-0.8-1.8-0.7-2.5
	c0.1-1.2,0.6-2.1,1.3-2.8c0.5-0.5,1.3-1,2.4-1.5c1.3-0.6,2.2-1.1,2.7-1.5c0.1-0.1,0.2-0.2,0.3-0.3c1,0.8,1.7,1.4,2.3,1.7
	c0.2,0.1,0.4,0.2,0.7,0.3c0.4,0.2,0.5,0.4,0.5,0.5c0,0.3-0.4,0.5-1.1,0.7c-0.1,1.7-0.3,3.3-0.4,5c0,0.2,0,0.3,0,0.4
	c0,0.4,0.1,0.6,0.4,0.6c0.5-0.1,0.7-0.1,0.6-0.1C80.6,266.1,80.7,266.2,80.7,266.5 M77.6,259.8c-0.9-0.7-1.4-1.1-1.6-1.1
	c-0.1,0-0.3,0.1-0.8,0.3c-0.4,0.2-0.7,0.4-0.8,0.5c-1,0.7-1.5,1.6-1.6,2.5c-0.2,1.4,0.4,2.4,1.7,3.2c0.3,0.2,0.5,0.3,0.7,0.3
	c0.3,0,0.6-0.1,1.2-0.3c0.5-0.2,0.8-0.4,0.8-0.6C77.3,263,77.4,261.4,77.6,259.8"/>
<path class="st1" d="M87.7,252.7c0,0.1,0.1,0.2,0.1,0.3c-0.2,0-0.3,0.1-0.4,0.1c-0.8,0-1.3,1-1.4,3c-0.2,3-0.3,6-0.5,9
	c0.1,0.8,0.5,1.2,1.2,1.4c0.1,0,0.3,0,0.5-0.2c0,0.1,0.1,0.1,0.1,0.2c-0.8,0.5-1.5,1.1-2.3,1.6c-0.9-0.6-1.7-1.1-2.6-1.7
	c0-0.1,0-0.2,0.1-0.2c0.5,0,0.8-0.5,0.8-1.3c0.2-3.3,0.4-6.5,0.7-9.8c0-0.6-0.1-1-0.5-1.3c-0.1-0.1-0.2-0.1-0.2-0.2
	c0-0.1,0.1-0.2,0.1-0.3c0.7,0.1,1.3,0.1,1.7,0c1.3-0.4,2-0.6,2.3-0.6C87.5,252.7,87.6,252.7,87.7,252.7"/>
<path class="st1" d="M96.5,262.4c0,0.1-0.1,0.1-0.2,0.2c-0.3,0.1-1.9,0.9-4.9,2.3c0,0,0.1,0.1,0.1,0.1c0.9,1,1.9,1.5,2.9,1.5
	c0.3,0,0.6-0.1,0.9-0.2c0.3-0.1,0.5-0.2,0.5-0.2c0.1-0.1,0.2-0.1,0.3-0.2c0.1,0.1,0.1,0.2,0.2,0.3c-0.1,0.2-0.6,0.6-1.7,1.3
	c-1.1,0.7-1.8,1-2.1,1c-1,0-1.8-0.7-2.7-1.9c-0.7-1.2-1.1-2.2-1.1-3.1c0.1-1.2,0.6-2.3,1.5-3.5c1-1.2,2.1-1.9,3.3-2
	c0.1,0,0.2-0.1,0.3-0.1c0,0,0.1,0,0.1,0c0.1,0,0.1,0.1,0.1,0.1c0.2,0.2,0.5,0.9,1.2,2c0.4,0.7,0.8,1.3,1.2,2
	C96.5,262.2,96.5,262.2,96.5,262.4 M94.2,262.8c-0.2-0.4-0.5-0.9-1-1.7c-0.4-0.7-0.8-1.2-1.1-1.6c-0.3,0.1-0.7,0.4-1.1,0.9
	c-0.4,0.5-0.5,0.9-0.6,1.2c0,0,0,0.2,0,0.4s0,0.4,0,0.5c0,0.6,0.2,1.3,0.6,1.8c0.4-0.1,0.9-0.4,1.7-0.8
	C93.7,263.1,94.2,262.9,94.2,262.8"/>
<path class="st1" d="M105.8,266.6c-0.4,0.3-0.7,0.6-1.1,0.9c-0.4,0.4-0.7,0.7-0.9,0.9c-2.1,0-4.2,0.1-6.2,0.1c0.6-0.7,1.3-1.3,1.9-2
	c1.5,0,3.1,0,4.6-0.1c0.5,0,0.9-0.1,1.3-0.4c0.5-0.3,0.7-0.6,0.7-1c0-0.3-0.2-0.5-0.6-0.7c-0.4-0.2-0.7-0.2-1.1-0.2
	c-1.2,0.1-2.4,0.2-3.6,0.3c-0.7,0-1.3-0.1-1.8-0.5c-0.5-0.4-0.7-0.9-0.7-1.6c0-0.7,0.2-1.3,0.7-1.9c0.2-0.2,0.7-0.6,1.4-1
	c0.5-0.3,1.1-0.8,1.8-1.3c0.1,0,0.3,0.1,0.4,0.1c1.1,0.5,1.9,0.7,2.2,0.7c0.2,0,0.5-0.1,0.7-0.4c0.1,0.1,0.2,0.1,0.3,0.2
	c-0.6,0.7-1.3,1.4-2,2.1c-1.3-0.5-2.2-0.8-2.7-0.8c-0.4,0-0.8,0.1-1.2,0.4c-0.3,0.3-0.5,0.6-0.5,0.9c0,0.2,0.1,0.5,0.4,0.6
	c0.3,0.2,0.6,0.3,0.9,0.3c0.3,0,0.8,0,1.5-0.1c0.6-0.1,1.2-0.1,1.5-0.1c0.9-0.1,1.6,0.1,2.2,0.6c0.6,0.5,0.9,1.1,0.9,1.9
	C107,265.2,106.6,265.9,105.8,266.6"/>
<path class="st1" d="M113.8,266.7c-1.2,1.1-2,1.6-2.3,1.6c-0.2,0-0.7-0.1-1.4-0.4c-0.8-0.3-1.2-0.5-1.2-0.6c0,0,0.1-0.2,0.4-0.4
	c0.3-0.2,0.4-0.5,0.4-0.8c-0.1-1.6-0.2-3.8-0.3-6.8c-0.4,0-0.9,0-1.3,0.1c-0.1,0-0.1-0.1-0.1-0.2c0-0.1,0-0.1,0-0.2
	c0.6-0.4,1.2-1.2,1.8-2.2c0.2-0.3,0.5-1.2,1.1-2.7c0.1-0.1,0.1-0.1,0.2-0.1c0,0,0.1,0,0.1,0.1c0.1,1.3,0.2,2.5,0.2,3.8
	c0.6,0,1.2-0.1,1.8-0.1c0,0.4,0.1,0.8,0.1,1.3c-0.6,0-1.2,0.1-1.8,0.1c0,0.8,0.1,2,0.2,3.6c0.2,2.1,0.3,3.3,0.3,3.6
	c0.3,0.3,0.6,0.5,0.9,0.4c0,0,0.1-0.1,0.3-0.2c0.1-0.1,0.3-0.2,0.3-0.2C113.6,266.3,113.7,266.5,113.8,266.7"/>
<path class="st1" d="M120.2,265.7c-0.2,0.2-0.5,0.6-0.9,1c-0.4,0.5-0.8,0.7-1.1,0.9c-0.9,0.1-1.5-0.7-2-2.3
	c-0.1-1.8-0.3-3.5-0.4-5.3c-0.1-0.8-0.3-1.2-0.7-1.2c-0.2,0-0.4,0.1-0.6,0.3c-0.1-0.1-0.1-0.1-0.2-0.2c0.6-0.6,1.2-1.3,1.8-1.8
	c0.2-0.2,0.4-0.2,0.7-0.1c0.3,0.2,0.9,0.5,1.9,1c0,0,0,0.1,0,0.2c-0.2,0.2-0.4,0.4-0.6,0.7c-0.1,0.1-0.1,0.7,0,1.8
	c0.1,1.5,0.3,2.9,0.4,4.4c0.4,0.6,0.7,0.8,0.9,0.8c0.2-0.1,0.4-0.2,0.6-0.3C120.1,265.5,120.2,265.6,120.2,265.7 M117.4,253
	c0,0.3-0.1,0.7-0.3,1.4c-0.2,0.7-0.5,1.1-0.7,1.3c0,0-0.1,0-0.2,0c-0.2,0-0.4-0.3-0.9-1c-0.4-0.7-0.6-1.2-0.6-1.4
	c0-0.3,0.1-0.6,0.3-0.9c0.2-0.3,0.5-0.4,0.9-0.4c0.4,0,0.7,0,1,0.2C117.2,252.5,117.3,252.7,117.4,253"/>
<path class="st1" d="M123.8,259.5c0.3,2.4,0.6,4.8,0.9,7.3c-0.8,0.1-1.5,0.2-2.3,0.2c-0.3-2.6-0.6-5.1-0.8-7.7
	c0-0.1-0.1-0.3-0.2-0.6c-0.1-0.1-0.3-0.1-0.4-0.1c-0.1,0-0.2,0.1-0.4,0.2c-0.1-0.1-0.2-0.1-0.2-0.2c0.5-0.7,1.1-1.3,1.5-1.8
	c0.1-0.1,0.2-0.1,0.3-0.1c-0.2,0-0.1,0.1,0.3,0.3c0.5,0.2,0.8,0.4,0.9,0.4c0.2,0.2,0.4,0.4,0.4,0.6c0,0.2,0,0.4,0.1,0.6
	c0,0.1,0.1,0.2,0.1,0.3c1.1-1,2.1-1.9,2.9-2.6c0.2-0.2,0.3-0.3,0.5-0.3c0,0,0.2,0,0.4,0.1c0.2,0,1.1,0.3,2.6,0.9
	c0,0.1,0,0.2,0.1,0.2c-0.2,0-0.4,0.1-0.6,0.2c-0.2,0.2-0.3,0.4-0.2,0.8c0.3,1.9,0.5,3.7,0.8,5.6c0,0.1,0.1,0.3,0.2,0.4
	c0.2,0.2,0.3,0.2,0.5,0.2c0.1,0,0.3-0.1,0.5-0.3c0.1,0,0.1,0.1,0.2,0.2c-0.2,0.3-0.6,0.8-1.3,1.6c-0.2,0.2-0.4,0.4-0.4,0.4
	c-0.1,0-0.2,0-0.4-0.1c0,0-0.1-0.1-0.2-0.2c-0.5-0.2-0.8-0.4-1-0.6c-0.2-0.2-0.4-0.6-0.4-1c-0.3-1.9-0.5-3.9-0.8-5.8
	c0-0.2-0.1-0.4-0.3-0.6c-0.2-0.2-0.4-0.2-0.7-0.2c-0.1,0-0.6,0.3-1.2,0.9C124.7,258.8,124.4,259.1,123.8,259.5"/>
<path class="st1" d="M140.2,258.1c0,0.1-0.1,0.1-0.1,0.2c-0.2,0.2-1.7,1.3-4.4,3.2c0,0,0.1,0.1,0.1,0.1c1.1,0.8,2.2,1.1,3.2,0.9
	c0.3-0.1,0.5-0.2,0.8-0.3c0.3-0.2,0.4-0.3,0.5-0.3c0.1-0.1,0.2-0.2,0.2-0.3c0.1,0.1,0.2,0.2,0.3,0.2c0,0.2-0.5,0.8-1.4,1.6
	c-1,0.9-1.6,1.3-1.8,1.4c-0.9,0.2-1.9-0.3-3-1.3c-1-1-1.5-1.9-1.7-2.8c-0.2-1.2,0.1-2.4,0.8-3.7c0.7-1.4,1.7-2.2,2.8-2.6
	c0.1,0,0.2-0.1,0.2-0.1c0,0,0.1,0,0.1,0c0.1,0,0.1,0,0.1,0c0.2,0.2,0.7,0.8,1.6,1.7c0.5,0.6,1,1.2,1.5,1.7
	C140.1,257.9,140.2,258,140.2,258.1 M138,259c-0.3-0.3-0.7-0.8-1.3-1.4c-0.5-0.6-1-1-1.4-1.3c-0.3,0.2-0.6,0.6-0.9,1.1
	c-0.3,0.5-0.4,1-0.3,1.3c0,0,0,0.2,0,0.4c0,0.2,0,0.4,0.1,0.5c0.1,0.6,0.4,1.2,1,1.7c0.3-0.2,0.8-0.6,1.5-1.1
	C137.6,259.5,138,259.1,138,259"/>
<path class="st2" d="M128,108.6c-0.7,0-1.3,0.1-2,0.1c-5.7,0-11.3-1.7-16-4.9l-11.9-8l-11.9,8c-4.8,3.2-10.3,4.9-16,4.9
	c-0.7,0-1.3,0-2-0.1L98.1,128L128,108.6z"/>
<path class="st3" d="M88.2,124.2l-20-13c0,5.7,0.6,14.3,3.2,23.3c4,14.1,11.3,24.8,21.9,32L88.2,124.2z"/>
<path class="st4" d="M108,124.2l20-13c0,5.7-0.6,14.3-3.2,23.3c-4,14.1-11.3,24.8-21.9,32L108,124.2z"/>
</svg>
